<svg width="431.000000" height="417.000000" viewBox="0 0 431 417" fill="none" xmlns="http://www.w3.org/2000/svg" xmlns:xlink="http://www.w3.org/1999/xlink">
	<desc>
			Created with Pixso.
	</desc>
	<defs>
		<radialGradient id="paint_radial_715_9060_0" cx="0.000000" cy="0.000000" r="1.000000" gradientUnits="userSpaceOnUse" gradientTransform="translate(210.574 208) rotate(-177.534) scale(232.289 155.527)">
			<stop stop-color="#9C9C9C"/>
			<stop offset="1.000000" stop-color="#9C9C9C" stop-opacity="0.000000"/>
		</radialGradient>
		<radialGradient id="paint_radial_715_9061_0" cx="0.000000" cy="0.000000" r="1.000000" gradientUnits="userSpaceOnUse" gradientTransform="translate(204.252 208) rotate(0) scale(225.75 161.33)">
			<stop stop-color="#9C9C9C"/>
			<stop offset="1.000000" stop-color="#9C9C9C" stop-opacity="0.000000"/>
		</radialGradient>
	</defs>
	<path id="Vector 230" d="M0 52.46L0 363.53M13.91 52.46L13.91 363.53M27.19 52.46L27.19 363.53M41.1 52.46L41.1 363.53M54.38 52.46L54.38 363.53M68.29 52.46L68.29 363.53M81.57 52.46L81.57 363.53M95.48 52.46L95.48 363.53M108.76 52.46L108.76 363.53M122.67 52.46L122.67 363.53M135.95 52.46L135.95 363.53M149.86 52.46L149.86 363.53M163.14 52.46L163.14 363.53M177.06 52.46L177.06 363.53M190.33 52.46L190.33 363.53M204.25 52.46L204.25 363.53M216.89 52.46L216.89 363.53M230.81 52.46L230.81 363.53M244.08 52.46L244.08 363.53M258 52.46L258 363.53M271.28 52.46L271.28 363.53M285.19 52.46L285.19 363.53M298.47 52.46L298.47 363.53M312.38 52.46L312.38 363.53M325.66 52.46L325.66 363.53M339.57 52.46L339.57 363.53M352.85 52.46L352.85 363.53M366.76 52.46L366.76 363.53M380.04 52.46L380.04 363.53M393.95 52.46L393.95 363.53M407.23 52.46L407.23 363.53M421.14 52.46L421.14 " stroke="url(#paint_radial_715_9060_0)" stroke-opacity="1.000000" stroke-width="1.000000"/>
	<path id="Vector 231" d="M8.85 416L430 416M8.85 402.25L430 402.25M8.85 389.14L430 389.14M8.85 375.39L430 375.39M8.85 362.28L430 362.28M8.85 348.54L430 348.54M8.85 335.42L430 335.42M8.85 321.68L430 321.68M8.85 308.56L430 308.56M8.85 294.82L430 294.82M8.85 281.7L430 281.7M8.85 267.96L430 267.96M8.85 254.84L430 254.84M8.85 241.1L430 241.1M8.85 227.98L430 227.98M8.85 214.24L430 214.24M8.85 201.75L430 201.75M8.85 188.01L430 188.01M8.85 174.89L430 174.89M8.85 161.15L430 161.15M8.85 148.03L430 148.03M8.85 134.29L430 134.29M8.85 121.17L430 121.17M8.85 107.43L430 107.43M8.85 94.31L430 94.31M8.85 80.57L430 80.57M8.85 67.45L430 67.45M8.85 53.71L430 53.71M8.85 40.6L430 40.6M8.85 26.85L430 26.85M8.85 13.74L430 13.74M8.85 0L430 " stroke="url(#paint_radial_715_9061_0)" stroke-opacity="1.000000" stroke-width="1.000000"/>
</svg>
