<svg width="93.599609" height="98.250000" viewBox="0 0 93.5996 98.25" fill="none" xmlns="http://www.w3.org/2000/svg" xmlns:xlink="http://www.w3.org/1999/xlink">
	<desc>
			Created with Pixso.
	</desc>
	<defs/>
	<path id="path" d="M0 35.9399C0 25.83 14.0898 17.63 31.4805 17.63C48.8691 17.63 62.9609 25.83 62.9609 35.9399C62.9609 46.05 48.8691 54.25 31.4805 54.25C25.8809 54.25 20.6309 53.4 16.0801 51.91L11.6992 52.65L2.33984 54.23L5.34961 46.15C1.98047 43.23 0 39.72 0 35.9399Z" fill="#144793" fill-opacity="1.000000" fill-rule="nonzero"/>
	<ellipse id="circle" cx="59.869141" cy="18.329956" rx="18.329987" ry="18.330002" fill="#F7F7F7" fill-opacity="1.000000"/>
	<rect id="rect" x="63.558594" y="3.469971" rx="3.690000" width="17.880005" height="7.389999" transform="rotate(90 63.558594 3.469971)" fill="#FF754C" fill-opacity="1.000000"/>
	<path id="path" d="M59.8691 27.2501C54.2695 27.2501 49.709 22.6901 49.709 17.0901C49.709 16.2501 50.3887 15.5701 51.2285 15.5701C52.0684 15.5701 52.748 16.25 52.748 17.0901C52.748 21.01 55.9395 24.2001 59.8594 24.2001C63.7793 24.2001 66.9688 21.01 66.9688 17.0901C66.9688 16.2501 67.6484 15.5701 68.4883 15.5701C69.3281 15.5701 70.0098 16.25 70.0098 17.0901C70.0098 22.6901 65.4688 27.2501 59.8691 27.2501Z" fill="#FF754C" fill-opacity="1.000000" fill-rule="nonzero"/>
	<path id="path" d="M63.5586 33.0701L56.168 33.0701C55.3281 33.0701 54.6484 32.39 54.6484 31.55C54.6484 30.71 55.3281 30.03 56.168 30.03L63.5586 30.03C64.3984 30.03 65.0781 30.71 65.0781 31.55C65.0781 32.39 64.3984 33.0701 63.5586 33.0701Z" fill="#FF754C" fill-opacity="1.000000" fill-rule="nonzero"/>
	<path id="path" d="M59.8691 33.0699C59.0293 33.0699 58.3496 32.39 58.3496 31.5499L58.3496 25.73C58.3496 24.89 59.0293 24.21 59.8691 24.21C60.709 24.21 61.3887 24.8899 61.3887 25.73L61.3887 31.5499C61.3887 32.39 60.709 33.0699 59.8691 33.0699Z" fill="#FF754C" fill-opacity="1.000000" fill-rule="nonzero"/>
	<circle id="circle" cx="40.818359" cy="34.869995" r="2.160004" fill="#F7F7F7" fill-opacity="1.000000"/>
	<circle id="circle" cx="30.939453" cy="34.869995" r="2.160004" fill="#F7F7F7" fill-opacity="1.000000"/>
	<circle id="circle" cx="21.048828" cy="34.869995" r="2.160004" fill="#F7F7F7" fill-opacity="1.000000"/>
	<path id="path" d="M93.5996 80.51C93.5996 70.71 79.9492 62.77 63.0996 62.77C46.25 62.77 32.5996 70.71 32.5996 80.51C32.5996 90.3101 46.25 98.25 63.0996 98.25C68.5195 98.25 73.6094 97.4299 78.0195 95.98L82.2598 96.7L91.3301 98.23L88.4199 90.4C91.6895 87.5701 93.5996 84.17 93.5996 80.51Z" fill="#144793" fill-opacity="1.000000" fill-rule="nonzero"/>
	<ellipse id="circle" cx="33.718750" cy="63.709839" rx="18.329987" ry="18.329994" fill="#F7F7F7" fill-opacity="1.000000"/>
	<rect id="rect" x="22.308594" y="56.449951" rx="2.980000" width="17.350006" height="14.520004" fill="#FF754C" fill-opacity="1.000000"/>
	<path id="path" d="M45.1289 63.62L45.1289 67.66C45.1289 68.38 44.3496 68.83 43.7285 68.47L40.2285 66.45L36.7285 64.4301C36.1094 64.0701 36.1094 63.17 36.7285 62.8101L40.2285 60.79L43.7285 58.77C44.3496 58.41 45.1289 58.86 45.1289 59.5801L45.1289 63.62Z" fill="#FF754C" fill-opacity="1.000000" fill-rule="nonzero"/>
	<circle id="circle" cx="72.449219" cy="80.510132" r="2.160004" fill="#F7F7F7" fill-opacity="1.000000"/>
	<circle id="circle" cx="62.568359" cy="80.510132" r="2.160004" fill="#F7F7F7" fill-opacity="1.000000"/>
	<circle id="circle" cx="52.679688" cy="80.510132" r="2.160004" fill="#F7F7F7" fill-opacity="1.000000"/>
</svg>
