<svg width="104.000000" height="110.000000" viewBox="0 0 104 110" fill="none" xmlns="http://www.w3.org/2000/svg" xmlns:xlink="http://www.w3.org/1999/xlink">
	<desc>
			Created with Pixso.
	</desc>
	<defs/>
	<path id="path" d="M-0.89 39.77C-0.89 28.44 14.89 19.26 34.37 19.26C53.84 19.26 69.63 28.44 69.63 39.77C69.63 51.09 53.84 60.27 34.37 60.27C28.1 60.27 22.22 59.32 17.12 57.65L12.21 58.48L1.73 60.25L5.1 51.2C1.33 47.93 -0.89 44 -0.89 39.77Z" fill="#FFFFFF" fill-opacity="1.000000" fill-rule="nonzero"/>
	<ellipse id="circle" cx="66.168945" cy="20.049622" rx="20.529585" ry="20.529598" fill="#FFFFFF" fill-opacity="1.000000"/>
	<ellipse id="circle" cx="66.168945" cy="20.049622" rx="20.029585" ry="20.029598" stroke="#383838" stroke-opacity="1.000000" stroke-width="1.000000"/>
	<rect id="rect" x="70.301758" y="3.406250" rx="3.690000" width="20.025600" height="8.276799" transform="rotate(90 70.301758 3.406250)" fill="#FF754C" fill-opacity="1.000000"/>
	<path id="path" d="M66.16 30.04C59.89 30.04 54.79 24.93 54.79 18.66C54.79 17.72 55.55 16.95 56.49 16.95C57.43 16.95 58.19 17.72 58.19 18.66C58.19 23.05 61.76 26.62 66.15 26.62C70.54 26.62 74.12 23.05 74.12 18.66C74.12 17.72 74.88 16.95 75.82 16.95C76.76 16.95 77.52 17.72 77.52 18.66C77.52 24.93 72.44 30.04 66.16 30.04Z" fill="#FF754C" fill-opacity="1.000000" fill-rule="nonzero"/>
	<path id="path" d="M70.3 36.55L62.02 36.55C61.08 36.55 60.32 35.79 60.32 34.85C60.32 33.91 61.08 33.15 62.02 33.15L70.3 33.15C71.24 33.15 72 33.91 72 34.85C72 35.79 71.24 36.55 70.3 36.55Z" fill="#FF754C" fill-opacity="1.000000" fill-rule="nonzero"/>
	<path id="path" d="M66.16 36.55C65.22 36.55 64.46 35.79 64.46 34.85L64.46 28.33C64.46 27.39 65.22 26.63 66.16 26.63C67.11 26.63 67.87 27.39 67.87 28.33L67.87 34.85C67.87 35.79 67.11 36.55 66.16 36.55Z" fill="#FF754C" fill-opacity="1.000000" fill-rule="nonzero"/>
	<circle id="circle" cx="44.833008" cy="38.574463" r="2.419204" fill="#383838" fill-opacity="1.000000"/>
	<circle id="circle" cx="33.768555" cy="38.574463" r="2.419204" fill="#383838" fill-opacity="1.000000"/>
	<circle id="circle" cx="22.690430" cy="38.574463" r="2.419204" fill="#383838" fill-opacity="1.000000"/>
	<path id="path" d="M103.94 89.69C103.94 78.71 88.66 69.82 69.78 69.82C50.91 69.82 35.62 78.71 35.62 89.69C35.62 100.66 50.91 109.56 69.78 109.56C75.85 109.56 81.55 108.64 86.49 107.01L91.24 107.82L101.4 109.53L98.14 100.76C101.8 97.59 103.94 93.79 103.94 89.69Z" fill="#FFFFFF" fill-opacity="1.000000" fill-rule="nonzero"/>
	<ellipse id="circle" cx="36.880859" cy="70.875183" rx="20.529585" ry="20.529591" fill="#FFFFFF" fill-opacity="1.000000"/>
	<ellipse id="circle" cx="36.880859" cy="70.875183" rx="20.029585" ry="20.029591" stroke="#383838" stroke-opacity="1.000000" stroke-width="1.000000"/>
	<rect id="rect" x="24.101562" y="62.744019" rx="2.980000" width="19.432007" height="16.262403" fill="#FF754C" fill-opacity="1.000000"/>
	<path id="path" d="M49.66 70.77L49.66 75.29C49.66 76.1 48.78 76.6 48.09 76.2L44.17 73.94L40.25 71.68C39.55 71.27 39.55 70.27 40.25 69.86L44.17 67.6L48.09 65.34C48.78 64.93 49.66 65.44 49.66 66.24L49.66 70.77Z" fill="#FF754C" fill-opacity="1.000000" fill-rule="nonzero"/>
	<circle id="circle" cx="80.258789" cy="89.691650" r="2.419204" fill="#383838" fill-opacity="1.000000"/>
	<circle id="circle" cx="69.193359" cy="89.691650" r="2.419204" fill="#383838" fill-opacity="1.000000"/>
	<circle id="circle" cx="58.117188" cy="89.691650" r="2.419204" fill="#383838" fill-opacity="1.000000"/>
</svg>
