<svg width="103.566406" height="105.326660" viewBox="0 0 103.566 105.327" fill="none" xmlns="http://www.w3.org/2000/svg" xmlns:xlink="http://www.w3.org/1999/xlink">
	<desc>
			Created with Pixso.
	</desc>
	<defs/>
	<path id="path" d="M7.67969 76.3368C7.26953 75.5968 6.88867 74.8667 6.5293 74.1167C3.38867 67.7368 1.74805 60.9768 1.46875 54.2568C1.39844 52.5768 1.4082 50.9067 1.50977 49.2468C2.47852 32.6968 11.6582 16.9968 27.2285 8.38672C51.3887 -4.97327 81.8184 3.77673 95.1797 27.9368C108.539 52.0968 99.7891 82.5269 75.6289 95.8867C68.5293 99.8168 60.8984 101.827 53.3086 102.107C51.6387 102.167 49.9688 102.147 48.3086 102.037C41.6992 101.627 35.2285 99.8867 29.2891 96.9668C28.1387 96.3967 26.998 95.7867 25.8984 95.1267C25.5684 94.9268 25.248 94.7368 24.9297 94.5267C24.2695 94.1167 23.6289 93.7068 22.998 93.2667C17.4785 89.4668 12.6582 84.4968 8.94922 78.4768C8.49805 77.7767 8.08984 77.0668 7.67969 76.3368Z" fill="#144793" fill-opacity="1.000000" fill-rule="nonzero"/>
	<path id="path" d="M95.1797 27.9368C108.539 52.0968 99.7891 82.5267 75.6289 95.8867C70.3398 98.8168 64.75 100.677 59.0996 101.557L59.0605 101.057L51.4297 52.1367L2.83984 40.7268C5.66016 26.8767 13.9004 15.7468 27.2305 8.37671C51.3906 -4.98328 81.8203 3.77673 95.1797 27.9368Z" fill="#FFFFFF" fill-opacity="1.000000" fill-rule="nonzero"/>
	<path id="path" d="M72.4688 95.3466L70.2598 91.3466C69.5996 90.1566 70.0586 88.6765 71.25 88.0166C72.4395 87.3566 73.9688 87.7366 74.6289 88.9265L76.8398 92.9265L72.4688 95.3466Z" fill="#144793" fill-opacity="1.000000" fill-rule="nonzero"/>
	<path id="path" d="M31.5898 16.2567C30.4004 16.9167 28.8887 16.5267 28.2305 15.3368L26.0195 11.3368L30.4004 8.91675L32.6094 12.9167C33.2695 14.1067 32.7793 15.5967 31.5898 16.2567Z" fill="#144793" fill-opacity="1.000000" fill-rule="nonzero"/>
	<path id="path" d="M90.6484 33.3066C89.459 33.9666 87.9785 33.5066 87.3184 32.3165C86.6602 31.1266 87.0391 29.5966 88.2285 28.9365L92.2285 26.7266L94.6484 31.1066L90.6484 33.3066Z" fill="#144793" fill-opacity="1.000000" fill-rule="nonzero"/>
	<path id="path" d="M7.67969 76.3365C7.26953 75.5966 6.88867 74.8666 6.5293 74.1166L12.2188 70.9666C13.4102 70.3066 14.8789 70.7666 15.5391 71.9565C16.1992 73.1466 15.8301 74.6865 14.6387 75.3466L8.94922 78.4966C8.5 77.7965 8.08984 77.0665 7.67969 76.3365Z" fill="#FF754C" fill-opacity="1.000000" fill-rule="nonzero"/>
	<path id="path" d="M51.6309 11.1367C51.6309 11.1367 51.541 11.1367 51.4902 11.1367C50.1504 11.1367 49.0605 10.0468 49.0703 8.70679L49.0703 4.13672L54.0898 4.15674L54.0898 8.72668C54.0703 10.0768 52.9805 11.1467 51.6309 11.1367Z" fill="#144793" fill-opacity="1.000000" fill-rule="nonzero"/>
	<path id="path" d="M48.3086 102.037L48.7793 95.5568C48.7793 94.2068 49.8789 93.1268 51.2285 93.1367C51.2695 93.1367 51.3184 93.1367 51.3594 93.1367C52.6992 93.1467 53.7891 94.2268 53.7793 95.5768L53.2988 102.107C51.6289 102.167 49.9688 102.147 48.3086 102.037Z" fill="#FF754C" fill-opacity="1.000000" fill-rule="nonzero"/>
	<path id="path" d="M99.4199 54.7966L94.8496 54.7966C93.5 54.7766 92.4199 53.6866 92.4297 52.3367C92.4297 52.2866 92.4297 52.2467 92.4297 52.1967C92.4297 50.8567 93.5195 49.7666 94.8594 49.7766L99.4297 49.7766L99.4199 54.7966Z" fill="#144793" fill-opacity="1.000000" fill-rule="nonzero"/>
	<path id="path" d="M1.46875 54.2468C1.39844 52.5668 1.4082 50.8969 1.50977 49.2368L7.99805 49.4868C9.34961 49.4868 10.4297 50.5868 10.4199 51.9368C10.4199 51.9768 10.4199 52.0269 10.4199 52.0668C10.4082 53.4069 9.32812 54.4968 7.97852 54.4868L1.46875 54.2468Z" fill="#FF754C" fill-opacity="1.000000" fill-rule="nonzero"/>
	<path id="path" d="M71.2305 16.2367C71.2305 16.2367 71.1504 16.1967 71.1113 16.1667C69.9297 15.5267 69.4902 14.0466 70.1406 12.8667L72.3398 8.85669L76.7207 11.2667L74.5215 15.2767C73.8711 16.4567 72.4102 16.8767 71.2305 16.2367Z" fill="#144793" fill-opacity="1.000000" fill-rule="nonzero"/>
	<path id="path" d="M24.9297 94.5367L28.3398 88.9967C28.9805 87.8167 30.459 87.3867 31.6406 88.0367C31.6797 88.0667 31.7188 88.0767 31.75 88.0967C32.9297 88.7467 33.3691 90.2167 32.7188 91.3967L29.2891 96.9567C28.1406 96.3867 27 95.7767 25.9004 95.1167C25.5703 94.9167 25.25 94.7467 24.9297 94.5367Z" fill="#FF754C" fill-opacity="1.000000" fill-rule="nonzero"/>
	<path id="path" d="M92.3008 77.4366L88.2891 75.2366C87.1094 74.5867 86.6895 73.1166 87.3301 71.9366C87.3496 71.8966 87.3691 71.8567 87.4004 71.8167C88.0391 70.6366 89.5195 70.1967 90.6992 70.8467L94.709 73.0466L92.3008 77.4366Z" fill="#144793" fill-opacity="1.000000" fill-rule="nonzero"/>
	<path id="path" d="M8.15039 31.2267L10.5605 26.8467L14.5703 29.0466C15.75 29.6967 16.1699 31.1666 15.5312 32.3467C15.5098 32.3867 15.4902 32.4266 15.4609 32.4667C14.8203 33.6467 13.3398 34.0867 12.1602 33.4366L8.15039 31.2267Z" fill="#144793" fill-opacity="1.000000" fill-rule="nonzero"/>
	<path id="path" d="" fill="#000000" fill-opacity="0" fill-rule="nonzero"/>
	<path id="path" d="M68.4492 99.1567C70.8906 98.2667 73.291 97.1866 75.6309 95.8867C99.791 82.5267 108.551 52.0967 95.1797 27.9368C81.8203 3.77673 51.3906 -4.98328 27.2305 8.38672C17.2402 13.9067 10.0195 22.0067 5.83008 31.5566" stroke="#FF754C" stroke-opacity="1.000000" stroke-width="4.000000"/>
	<path id="path" d="M59.0996 101.557C63.9297 101.997 70.1191 103.297 74.2891 105.327L69.6387 98.7068L70.3105 90.6467C67.7305 94.4967 63.0391 98.7467 59.0996 101.557Z" fill="#FF754C" fill-opacity="1.000000" fill-rule="nonzero"/>
	<path id="path" d="M2.83984 40.7267C2.68945 35.8867 1.76953 29.6167 0 25.3367L6.33008 30.3767L14.4199 30.1967C10.4199 32.5366 5.89062 36.9567 2.83984 40.7267Z" fill="#FF754C" fill-opacity="1.000000" fill-rule="nonzero"/>
	<circle id="circle" cx="51.429688" cy="51.636719" r="4.000000" fill="#FF754C" fill-opacity="1.000000"/>
	<path id="polyline" d="M48.9492 17.1567L48.9297 17.1367C48.9297 15.7367 50.0293 14.6367 51.4297 14.6367C52.8301 14.6367 53.9297 15.7367 53.9297 17.1367L53.9102 17.1567L48.9492 17.1567ZM78.1055 63.9531L78.1328 63.9453C79.3594 64.619 79.7949 66.1127 79.1211 67.3398C78.4473 68.567 76.9531 69.002 75.7266 68.3281L75.7188 68.301L78.1055 63.9531Z" fill="#000000" fill-opacity="0" fill-rule="nonzero"/>
	<path id="polyline" d="M51.4297 17.1367L51.4297 52.1367L76.9297 66.1367" stroke="#FF754C" stroke-opacity="1.000000" stroke-width="5.000000" stroke-linecap="round"/>
</svg>
