<svg width="284.790527" height="400.000000" viewBox="0 0 284.791 400" fill="none" xmlns="http://www.w3.org/2000/svg" xmlns:xlink="http://www.w3.org/1999/xlink">
	<desc>
			Created with Pixso.
	</desc>
	<defs>
		<clipPath id="clip290_5203">
			<rect id="Property 1=Default" width="284.790741" height="400.000000" fill="white" fill-opacity="0"/>
		</clipPath>
	</defs>
	<g clip-path="url(#clip290_5203)">
		<ellipse id="ellipse" cx="143.789551" cy="387.155518" rx="70.602249" ry="12.844511" fill="#B8B6B6" fill-opacity="1.000000"/>
		<rect id="rect" x="218.847656" y="179.859375" width="13.610070" height="54.814564" transform="rotate(-47.44 218.847656 179.859375)" fill="#0A1B35" fill-opacity="1.000000"/>
		<path id="path" d="M199.438 182.205C200.578 189.86 207.009 195.883 214.715 196.546C219.087 196.921 223.12 195.662 226.318 193.297C225.978 184.944 222.966 181.626 220.312 180.35C217.063 178.768 214.103 176.608 211.993 173.665L206.073 165.958C201.292 169.531 198.468 175.587 199.438 182.205Z" fill="#E3E2E2" fill-opacity="1.000000" fill-rule="nonzero"/>
		<path id="path" d="M206.09 165.958L212.01 173.665C214.12 176.608 216.876 179.721 220.125 181.303C222.779 182.579 225.995 184.944 226.335 193.297C230.537 190.201 233.259 185.216 233.259 179.602C233.259 170.211 225.654 162.589 216.247 162.589C212.436 162.589 208.914 163.848 206.09 165.958Z" fill="#144793" fill-opacity="1.000000" fill-rule="nonzero"/>
		<circle id="circle" cx="234.449707" cy="288.363525" r="11.908813" fill="#1349A6" fill-opacity="1.000000"/>
		<path id="path" d="M249.729 203.59C249.729 203.59 258.235 211.909 265.346 202.212C265.346 202.212 271.301 196.138 277.323 197.261C277.323 197.261 285.762 198.367 284.707 211.62C284.707 211.62 279.263 263.406 253.097 290.167C253.097 290.167 252.213 291.085 250.409 292.004C244.506 295.049 237.14 293.399 233.022 288.193C231.083 285.743 229.178 282.239 227.698 277.22C227.698 277.22 218.103 249.456 234.417 206.073C235.285 203.76 236.867 201.718 239.011 200.493C241.767 198.911 245.697 198.35 249.729 203.59Z" fill="#E3E2E2" fill-opacity="1.000000" fill-rule="nonzero"/>
		<path id="path" d="M255.223 219.241L255.155 219.599C253.369 228.343 253.692 237.445 256.55 245.9C256.567 245.968 256.601 246.036 256.618 246.104C256.618 246.104 265.244 271.3 240.133 292.957C243.467 293.927 247.142 293.671 250.392 292.021C252.178 291.085 253.08 290.167 253.08 290.167C279.245 263.406 284.689 211.62 284.689 211.62C285.744 198.367 277.305 197.261 277.305 197.261C271.283 196.121 265.329 202.212 265.329 202.212C264.835 202.892 264.325 203.488 263.814 203.998C259.595 208.234 256.414 213.389 255.223 219.241Z" fill="#FF754C" fill-opacity="1.000000" fill-rule="nonzero"/>
		<path id="path" d="M97.7207 303.947L98.3672 318.306C98.6055 323.767 100.103 328.905 102.552 333.345C105.921 339.469 111.093 344.267 117.336 346.751C118.936 347.397 120.603 347.874 122.321 348.197C125.23 348.741 127.867 349.098 129.942 349.337C131.916 349.558 133.89 349.677 135.88 349.711C136.305 349.728 136.748 349.728 137.19 349.728L143.178 349.728C143.825 349.728 144.471 349.728 145.101 349.711C146.887 349.66 148.673 349.541 150.426 349.337C152.484 349.098 155.138 348.741 158.047 348.197C159.323 347.958 160.565 347.635 161.773 347.21C167.71 345.186 172.78 341.103 176.387 335.727C179.67 330.793 181.695 324.771 182.001 318.306L182.647 303.947C168.663 307.299 154.424 308.983 140.184 308.983C125.945 308.983 111.722 307.299 97.7207 303.947Z" fill="#FFFFFF" fill-opacity="1.000000" fill-rule="nonzero"/>
		<path id="path" d="M97.7207 303.947L98.3672 318.306C98.6055 323.767 100.103 328.905 102.552 333.345C105.921 339.469 111.093 344.267 117.336 346.751C118.936 347.397 120.603 347.874 122.321 348.197C125.23 348.741 127.867 349.098 129.942 349.337C131.916 349.558 133.89 349.677 135.88 349.711C136.305 349.728 136.748 349.728 137.19 349.728L138.432 349.728C136.986 349.422 135.591 348.996 134.229 348.452C127.986 345.968 122.814 341.171 119.446 335.046C116.996 330.606 115.516 325.468 115.261 320.007L114.682 307.179C109 306.38 103.335 305.308 97.7207 303.947Z" fill="#E3E2E2" fill-opacity="1.000000" fill-rule="nonzero"/>
		<path id="path" d="M182.494 306.822L181.984 318.305C181.695 324.77 179.67 330.793 176.387 335.726C172.78 341.102 167.71 345.185 161.773 347.21C160.565 347.635 159.306 347.958 158.03 348.197C155.138 348.741 152.484 349.098 150.426 349.336C148.656 349.541 146.87 349.66 145.083 349.711C144.454 349.728 143.808 349.728 143.161 349.728L136.85 349.728C137.326 349.728 137.802 349.728 138.279 349.711C140.065 349.66 141.851 349.541 143.621 349.336C145.679 349.098 148.333 348.741 151.225 348.197C152.501 347.958 153.76 347.635 154.968 347.21C160.905 345.185 165.975 341.102 169.582 335.726C172.865 330.793 174.89 324.77 175.179 318.305L175.57 309.578C177.918 308.761 180.215 307.843 182.494 306.822Z" fill="#F2F3F4" fill-opacity="1.000000" fill-rule="nonzero"/>
		<path id="path" d="M141.205 315.703L131.865 314.903C119.191 313.814 106.721 310.48 95.186 304.576C91.9536 302.926 88.6704 301.004 85.5059 298.826C76.0981 292.327 69.6162 281.729 67.3027 269.718C65.2271 258.881 63.0322 242.378 62.8623 220.449L62.8623 155.682L141.205 155.682L219.548 155.682L219.548 220.449C219.378 242.378 217.201 258.881 215.108 269.718C212.794 281.728 206.312 292.327 196.904 298.826C193.74 301.021 190.457 302.926 187.224 304.576C175.69 310.48 163.22 313.814 150.545 314.903L141.205 315.703Z" fill="#F2F3F4" fill-opacity="1.000000" fill-rule="nonzero"/>
		<path id="path" d="M219.547 156.499L219.547 220.432C219.377 242.361 217.183 258.864 215.107 269.7C212.793 281.711 206.312 292.31 196.903 298.809C193.739 301.004 190.456 302.909 187.223 304.576C185.658 305.376 184.093 306.125 182.494 306.822L182.63 303.947C182.018 304.1 181.405 304.236 180.792 304.372C183.906 302.756 187.053 300.919 190.098 298.809C199.506 292.31 205.988 281.711 208.302 269.7C210.377 258.864 212.572 242.361 212.742 220.432L212.742 157.843C214.886 157.486 217.183 157.043 219.547 156.499Z" fill="#E3E2E2" fill-opacity="1.000000" fill-rule="nonzero"/>
		<path id="path" d="M62.8433 152.688L62.8433 163.117L62.8774 199.745C64 197.176 66.2798 195.339 68.9678 195.322L69.189 195.322C71.9282 195.355 74.1396 197.72 74.5649 200.664C74.9053 203.113 75.2964 205.597 75.7729 208.115C78.1885 221.368 82.2036 235.148 88.8896 246.972C88.5151 245.032 88.1411 243.042 87.7329 241.034C86.3887 234.383 85.3682 227.646 84.6533 220.875C83.9561 214.086 83.6157 207.264 83.6157 200.442C83.6157 184.263 94.9121 170.977 109.186 170.313L197.668 166.281C197.668 166.281 207.467 166.638 219.512 163.406L219.512 152.977C207.467 156.209 197.668 155.852 197.668 155.852L85.7251 155.852C85.7251 155.852 75.3477 156.227 62.8433 152.688Z" fill="#E3E2E2" fill-opacity="1.000000" fill-rule="nonzero"/>
		<path id="Union" d="M62.1289 203.353L62.1289 220.841C62.2988 242.771 64.4937 259.273 66.6201 270.11C68.9341 282.121 75.4839 292.719 84.9937 299.219C88.1924 301.413 91.5098 303.318 94.7593 304.986C106.413 310.889 119.019 314.223 131.812 315.312C134.943 315.567 138.073 315.704 141.237 315.704L150.577 314.887C151.7 314.785 152.805 314.683 153.911 314.53L153.911 314.53C152.806 314.683 151.7 314.785 150.577 314.887L141.237 315.704C144.367 315.704 147.515 315.568 150.662 315.312C157.076 314.768 163.404 313.662 169.614 311.961C175.824 310.243 181.88 307.946 187.715 304.986C190.965 303.319 194.282 301.413 197.48 299.219C206.991 292.72 213.541 282.121 215.854 270.11C217.981 259.273 220.175 242.771 220.346 220.842L220.346 203.268C220.346 199.695 218.27 196.361 215.14 195.544C214.561 195.391 213.949 195.323 213.336 195.323C210.666 195.323 208.352 197.466 207.943 200.358C207.586 202.927 207.161 205.547 206.667 208.201C200.594 241.529 184.245 278.208 141.781 278.65L140.692 278.65C115.089 278.378 98.9614 264.922 88.9072 246.974L88.9067 246.973C82.2207 235.149 78.2056 221.369 75.79 208.116C75.3135 205.598 74.9224 203.114 74.582 200.665C74.1567 197.721 71.9453 195.356 69.2061 195.323L68.9849 195.323C66.2798 195.34 64.0005 197.177 62.8945 199.746C62.418 200.834 62.1289 202.06 62.1289 203.353ZM121.207 304.67C129.371 308.856 137.998 311.74 146.834 313.432C138.001 311.74 129.383 308.856 121.207 304.67Z" clip-rule="evenodd" fill="#1349A6" fill-opacity="1.000000" fill-rule="evenodd"/>
		<path id="path" d="M62.1299 203.352L62.1299 220.84C62.2998 242.77 64.4946 259.272 66.6211 270.109C68.9351 282.12 75.4849 292.719 84.9946 299.218C88.1934 301.412 91.5107 303.317 94.7603 304.985C106.414 310.888 119.02 314.222 131.813 315.311C134.944 315.566 138.074 315.703 141.238 315.703L150.578 314.886C151.701 314.784 152.807 314.682 153.913 314.529C142.378 313.151 131.082 309.833 120.568 304.338C117.336 302.637 114.052 300.698 110.888 298.452C101.463 291.817 94.981 280.98 92.6846 268.714C91.5786 262.827 90.439 255.308 88.9077 246.972C82.2217 235.148 78.2065 221.368 75.791 208.115C75.3145 205.597 74.9233 203.113 74.583 200.664C74.1577 197.72 71.9463 195.355 69.207 195.322L68.9858 195.322C66.2808 195.339 64.0015 197.176 62.8955 199.745C62.4189 200.833 62.1299 202.059 62.1299 203.352Z" fill="#144793" fill-opacity="1.000000" fill-rule="nonzero"/>
		<path id="path" d="M88.9072 246.972C90.4385 255.308 91.5781 262.827 92.6841 268.714C94.981 280.98 101.462 291.817 110.888 298.452C114.052 300.698 117.335 302.637 120.568 304.338C131.099 309.833 142.378 313.151 153.912 314.529C152.807 314.682 151.701 314.784 150.578 314.886L141.238 315.703C144.368 315.703 147.516 315.567 150.663 315.311C157.077 314.767 163.405 313.661 169.615 311.96C175.825 310.242 181.881 307.945 187.716 304.985C190.966 303.317 194.283 301.412 197.481 299.218C206.992 292.719 213.542 282.12 215.855 270.109C217.982 259.272 220.176 242.77 220.347 220.84L220.347 203.266C220.347 199.694 218.271 196.359 215.141 195.543C214.562 195.39 213.95 195.322 213.337 195.322C210.667 195.322 208.353 197.465 207.944 200.357C207.587 202.926 207.162 205.546 206.668 208.2C200.595 241.528 184.246 278.207 141.782 278.649L140.693 278.649C115.09 278.377 98.9619 264.92 88.9072 246.972Z" fill="#1349A6" fill-opacity="1.000000" fill-rule="nonzero"/>
		<path id="logo" d="M186.356 204.321C186.526 203.419 186.611 202.501 186.611 201.548C186.611 195.798 183.277 190.813 178.429 188.431C178.445 188.244 178.462 188.04 178.462 187.853C178.462 184.348 175.622 181.507 172.117 181.507C168.612 181.507 165.771 184.348 165.771 187.853C165.771 188.006 165.771 188.159 165.788 188.312C160.803 190.643 157.35 195.713 157.35 201.565C157.35 202.467 157.435 203.352 157.588 204.202C155.563 205.257 154.186 207.384 154.186 209.816C154.186 213.321 157.027 216.162 160.531 216.162C162.232 216.162 163.798 215.481 164.938 214.376C167.03 215.532 169.429 216.196 171.981 216.196C174.533 216.196 176.812 215.567 178.854 214.478C179.977 215.532 181.491 216.162 183.158 216.162C186.663 216.162 189.504 213.321 189.504 209.816C189.504 207.486 188.245 205.41 186.356 204.321ZM172.134 183.004C174.788 183.004 176.948 185.148 176.965 187.785C176.965 188.329 176.88 188.891 176.71 189.367C176.064 191.29 174.26 192.667 172.134 192.667C170.007 192.667 168.136 191.239 167.523 189.282C167.387 188.823 167.302 188.346 167.302 187.836C167.387 185.233 169.514 183.004 172.134 183.004ZM160.565 214.631C157.895 214.631 155.734 212.47 155.734 209.799C155.734 208.081 156.635 206.567 157.997 205.716C158.438 205.427 158.932 205.223 159.459 205.104C159.817 205.019 160.191 204.968 160.583 204.968C163.253 204.968 165.414 207.128 165.414 209.799C165.414 210.735 165.142 211.603 164.682 212.334C164.41 212.793 164.053 213.185 163.645 213.525C162.811 214.222 161.722 214.631 160.565 214.631ZM172.015 214.597C169.837 214.597 167.779 214.052 165.975 213.117C166.571 212.147 166.911 211.007 166.911 209.799C166.911 206.295 164.07 203.454 160.565 203.454C160.072 203.454 159.579 203.505 159.119 203.624C159 202.943 158.949 202.246 158.949 201.548C158.949 196.461 161.875 192.038 166.128 189.895C166.979 192.395 169.344 194.182 172.134 194.182C174.924 194.182 177.204 192.447 178.088 189.997C182.222 192.191 185.046 196.546 185.046 201.531C185.046 202.263 184.979 202.977 184.876 203.675C184.332 203.522 183.771 203.437 183.175 203.437C179.67 203.437 176.829 206.278 176.829 209.782C176.829 211.041 177.204 212.215 177.833 213.202C176.081 214.086 174.107 214.597 172.015 214.597ZM183.192 214.631C182.086 214.631 181.065 214.257 180.249 213.627C179.824 213.304 179.466 212.913 179.16 212.47C178.649 211.705 178.36 210.786 178.36 209.799C178.36 207.128 180.521 204.968 183.192 204.968C183.668 204.968 184.128 205.036 184.553 205.172C185.081 205.325 185.557 205.563 185.982 205.869C187.224 206.737 188.023 208.183 188.023 209.816C188.023 212.487 185.863 214.631 183.192 214.631Z" fill="#1349A6" fill-opacity="1.000000" fill-rule="nonzero"/>
		<path id="logo" d="M186.611 201.548C186.611 195.798 183.277 190.813 178.429 188.431C178.445 188.244 178.462 188.04 178.462 187.853C178.462 184.348 175.622 181.507 172.117 181.507C168.612 181.507 165.771 184.348 165.771 187.853C165.771 188.006 165.771 188.159 165.788 188.312C160.803 190.643 157.35 195.713 157.35 201.565C157.35 202.467 157.435 203.352 157.588 204.202C155.563 205.257 154.186 207.384 154.186 209.816C154.186 213.321 157.027 216.162 160.531 216.162C162.232 216.162 163.798 215.481 164.938 214.376C167.03 215.532 169.429 216.196 171.981 216.196C174.533 216.196 176.812 215.567 178.854 214.478C179.977 215.532 181.491 216.162 183.158 216.162C186.663 216.162 189.504 213.321 189.504 209.816C189.504 207.486 188.245 205.41 186.356 204.321C186.526 203.419 186.611 202.501 186.611 201.548ZM176.965 187.785C176.965 188.329 176.88 188.891 176.71 189.367C176.064 191.29 174.26 192.667 172.134 192.667C170.007 192.667 168.136 191.239 167.523 189.282C167.387 188.823 167.302 188.346 167.302 187.836C167.387 185.233 169.514 183.004 172.134 183.004C174.788 183.004 176.948 185.148 176.965 187.785ZM155.734 209.799C155.734 208.081 156.635 206.567 157.997 205.716C158.438 205.427 158.932 205.223 159.459 205.104C159.817 205.019 160.191 204.968 160.583 204.968C163.253 204.968 165.414 207.128 165.414 209.799C165.414 210.735 165.142 211.603 164.682 212.334C164.41 212.793 164.053 213.185 163.645 213.525C162.811 214.222 161.722 214.631 160.565 214.631C157.895 214.631 155.734 212.47 155.734 209.799ZM165.975 213.117C166.571 212.147 166.911 211.007 166.911 209.799C166.911 206.295 164.07 203.454 160.565 203.454C160.072 203.454 159.579 203.505 159.119 203.624C159 202.943 158.949 202.246 158.949 201.548C158.949 196.461 161.875 192.038 166.128 189.895C166.979 192.395 169.344 194.182 172.134 194.182C174.924 194.182 177.204 192.447 178.088 189.997C182.222 192.191 185.046 196.546 185.046 201.531C185.046 202.263 184.979 202.977 184.876 203.675C184.332 203.522 183.771 203.437 183.175 203.437C179.67 203.437 176.829 206.278 176.829 209.782C176.829 211.041 177.204 212.215 177.833 213.202C176.081 214.086 174.107 214.597 172.015 214.597C169.837 214.597 167.779 214.052 165.975 213.117ZM180.249 213.627C179.824 213.304 179.466 212.913 179.16 212.47C178.649 211.705 178.36 210.786 178.36 209.799C178.36 207.128 180.521 204.968 183.192 204.968C183.668 204.968 184.128 205.036 184.553 205.172C185.081 205.325 185.557 205.563 185.982 205.869C187.224 206.737 188.023 208.183 188.023 209.816C188.023 212.487 185.863 214.631 183.192 214.631C182.086 214.631 181.065 214.257 180.249 213.627Z" stroke="#1349A6" stroke-opacity="1.000000" stroke-width="0.990000"/>
		<rect id="rect" x="97.976562" y="209.629150" rx="1.480000" width="167.029617" height="44.453907" fill="#1349A6" fill-opacity="1.000000"/>
		<ellipse id="ellipse" cx="231.642578" cy="232.136719" rx="10.922080" ry="11.058184" fill="#FFFFFF" fill-opacity="1.000000"/>
		<rect id="rect-2" x="246.955078" y="214.920166" width="2.364749" height="34.433491" fill="#FFFFFF" fill-opacity="1.000000"/>
		<rect id="rect-3" x="251.632812" y="214.920166" width="2.364749" height="34.433491" fill="#FFFFFF" fill-opacity="1.000000"/>
		<rect id="rect-4" x="118.390625" y="209.629150" width="2.994227" height="44.453907" fill="#FFFFFF" fill-opacity="1.000000"/>
		<rect id="rect-5" x="108.285156" y="209.629150" width="2.994220" height="44.453907" fill="#FFFFFF" fill-opacity="1.000000"/>
		<rect id="rect-6" x="113.406250" y="209.629150" width="2.994220" height="44.453907" fill="#FFFFFF" fill-opacity="1.000000"/>
		<path id="path" d="M262.54 209.629L260.974 209.629L260.974 241.103C260.974 242.498 259.868 243.603 258.507 243.603L97.9766 243.603L97.9766 251.565C97.9766 252.943 99.0825 254.066 100.443 254.066L262.522 254.066C263.883 254.066 264.989 252.943 264.989 251.565L264.989 212.13C264.989 210.752 263.9 209.629 262.54 209.629Z" fill="#0E3F87" fill-opacity="1.000000" fill-rule="nonzero"/>
		<path id="path-2" d="M245.951 209.629L100.459 209.629C99.0981 209.629 97.9922 210.752 97.9922 212.13L97.9922 216.621C126.233 215.294 245.951 209.629 245.951 209.629Z" fill="#1860C9" fill-opacity="1.000000" fill-rule="nonzero"/>
		<rect id="rect-7" x="110.820312" y="257.043213" width="140.183762" height="32.136784" fill="#F4F4F4" fill-opacity="1.000000"/>
		<g opacity="0.540000">
			<rect id="rect-8" x="143.093750" y="266.349121" width="99.319511" height="0.646487" fill="#D4D3D3" fill-opacity="1.000000"/>
		</g>
		<g opacity="0.540000">
			<rect id="rect-9" x="120.568359" y="275.706055" width="122.966988" height="0.646487" fill="#D4D3D3" fill-opacity="1.000000"/>
		</g>
		<g opacity="0.540000">
			<rect id="rect-10" x="134.433594" y="279.244629" width="99.319496" height="0.646487" fill="#D4D3D3" fill-opacity="1.000000"/>
		</g>
		<g opacity="0.540000">
			<rect id="rect-11" x="175.195312" y="271.486816" width="54.304199" height="0.646487" fill="#D4D3D3" fill-opacity="1.000000"/>
		</g>
		<g opacity="0.540000">
			<rect id="rect-12" x="154.117188" y="271.486816" width="16.042873" height="0.646487" fill="#F8F8F8" fill-opacity="1.000000"/>
		</g>
		<g opacity="0.240000">
			<path id="path-3" d="M251.021 257.06L110.838 257.06L110.838 264.665C116.639 264.155 122.492 264.461 128.31 264.784C169.327 267.149 210.259 270.892 251.021 276.012L251.021 257.06Z" fill="#D4D3D3" fill-opacity="1.000000" fill-rule="nonzero"/>
		</g>
		<rect id="rect-13" x="108.505859" y="254.083008" rx="0.890000" width="144.079636" height="5.920374" fill="#FFA800" fill-opacity="1.000000"/>
		<rect id="rect-14" x="108.505859" y="286.219727" rx="0.890000" width="144.079636" height="5.920374" fill="#FFA800" fill-opacity="1.000000"/>
		<g opacity="0.540000">
			<path id="path-4" d="M251.412 254.117L251.412 256.635C251.412 257.469 250.748 258.132 249.932 258.132L108.812 258.132C108.71 258.132 108.608 258.132 108.506 258.098L108.506 258.489C108.506 259.323 109.169 259.987 109.986 259.987L251.105 259.987C251.922 259.987 252.585 259.306 252.585 258.489L252.585 255.563C252.585 254.849 252.092 254.253 251.412 254.117Z" fill="#AF7911" fill-opacity="1.000000" fill-rule="nonzero"/>
		</g>
		<path id="path-5" d="M251.412 286.254L251.412 288.772C251.412 289.605 250.748 290.269 249.932 290.269L108.812 290.269C108.71 290.269 108.608 290.269 108.506 290.235L108.506 290.626C108.506 291.46 109.169 292.123 109.986 292.123L251.105 292.123C251.922 292.123 252.585 291.443 252.585 290.626L252.585 287.7C252.585 286.985 252.092 286.39 251.412 286.254Z" fill="#AF7911" fill-opacity="1.000000" fill-rule="nonzero"/>
		<path id="path-6" d="M113.56 183.243L252.467 183.243L252.467 208.03L113.56 208.03C107.962 208.03 103.42 203.437 103.42 197.788L103.42 193.501C103.42 187.853 107.962 183.243 113.56 183.243Z" fill="#FFFFFF" fill-opacity="1.000000" fill-rule="nonzero"/>
		<g opacity="0.540000">
			<path id="path-7" d="M136.321 188.023C174.974 190.609 213.95 188.142 252.466 192.072L252.466 183.226L113.439 183.226C110.394 183.226 107.689 184.604 105.852 186.764C116.008 186.322 126.165 187.36 136.321 188.023Z" fill="#F5F4F4" fill-opacity="1.000000" fill-rule="nonzero"/>
		</g>
		<path id="path-8" d="M103.42 195.628C103.42 200.289 105.955 204.338 109.714 206.465C110.77 203.658 111.365 200.579 111.365 197.329C111.365 193.025 110.327 189.01 108.541 185.556C105.444 187.802 103.42 191.477 103.42 195.628Z" fill="#84570F" fill-opacity="1.000000" fill-rule="nonzero"/>
		<path id="path-9" d="M255.291 209.867L112.3 209.867C105.24 209.867 99.5234 204.083 99.5234 196.938L99.5234 193.263C99.5234 186.118 105.24 180.333 112.3 180.333L255.291 180.333C256.431 180.333 257.315 181.354 257.145 182.511L256.856 184.519C256.72 185.454 255.937 186.152 255.001 186.152L112.283 186.152C108.404 186.152 105.257 189.333 105.257 193.263L105.257 196.938C105.257 200.868 108.404 204.049 112.283 204.049L255.001 204.049C255.937 204.049 256.737 204.747 256.856 205.682L257.145 207.69C257.315 208.83 256.431 209.867 255.291 209.867Z" fill="#FFA800" fill-opacity="1.000000" fill-rule="nonzero"/>
		<path id="path-10" d="M255.529 182.528C255.393 183.464 254.61 184.161 253.674 184.161L110.956 184.161C107.077 184.161 103.93 187.343 103.93 191.272L103.93 194.947C103.93 196.87 104.678 198.588 105.886 199.864C105.478 198.962 105.257 197.975 105.257 196.921L105.257 193.246C105.257 189.316 108.404 186.135 112.283 186.135L255.001 186.135C255.937 186.135 256.737 185.437 256.856 184.501L257.145 182.494C257.281 181.541 256.686 180.674 255.818 180.418L255.529 182.528Z" fill="#AF7911" fill-opacity="1.000000" fill-rule="nonzero"/>
		<path id="path-11" d="M256.856 205.682C256.754 204.951 256.244 204.372 255.597 204.151L255.818 205.716C255.989 206.856 255.104 207.894 253.964 207.894L110.973 207.894C107.009 207.894 103.454 206.056 101.123 203.181C103.301 207.179 107.486 209.867 112.3 209.867L255.291 209.867C256.431 209.867 257.315 208.847 257.146 207.69L256.856 205.682Z" fill="#AF7911" fill-opacity="1.000000" fill-rule="nonzero"/>
		<g opacity="0.540000">
			<rect id="rect-15" x="124.072266" y="190.694092" width="112.010872" height="0.697522" fill="#D4D3D3" fill-opacity="1.000000"/>
		</g>
		<g opacity="0.540000">
			<rect id="rect-16" x="124.072266" y="198.673096" width="112.010872" height="0.697522" fill="#D4D3D3" fill-opacity="1.000000"/>
		</g>
		<g opacity="0.540000">
			<rect id="rect-17" x="134.058594" y="193.109863" width="92.038094" height="0.697522" fill="#D4D3D3" fill-opacity="1.000000"/>
		</g>
		<g opacity="0.540000">
			<rect id="rect-18" x="135.896484" y="196.001953" width="86.764221" height="0.697522" fill="#D4D3D3" fill-opacity="1.000000"/>
		</g>
		<rect id="rect" x="230.962891" y="282.477051" rx="2.000000" width="6.805036" height="16.723379" fill="#1349A6" fill-opacity="1.000000"/>
		<rect id="rect" x="219.181641" y="287.909180" rx="2.000000" width="6.805036" height="11.908813" transform="rotate(-30 219.181641 287.909180)" fill="#1349A6" fill-opacity="1.000000"/>
		<rect id="rect" x="243.298828" y="285.010742" rx="2.000000" width="6.805036" height="11.908813" transform="rotate(30 243.298828 285.010742)" fill="#1349A6" fill-opacity="1.000000"/>
		<rect id="rect" x="74.962891" y="225.945801" width="13.610072" height="40.830215" transform="rotate(163.43 74.962891 225.945801)" fill="#0A1B35" fill-opacity="1.000000"/>
		<path id="path" d="M74.3291 182.205C73.1895 189.86 66.7583 195.883 59.0518 196.546C54.6797 196.921 50.6475 195.662 47.4492 193.297C47.7896 184.944 50.8008 181.626 53.4546 180.35C56.7041 178.768 59.6641 176.608 61.7739 173.665L67.6943 165.958C72.4746 169.531 75.2988 175.587 74.3291 182.205Z" fill="#B8B6B6" fill-opacity="1.000000" fill-rule="nonzero"/>
		<path id="path" d="M67.6592 165.958L61.7388 173.665C59.6294 176.608 56.8735 179.721 53.624 181.303C50.9702 182.579 47.7544 184.944 47.4146 193.297C43.2124 190.201 40.4902 185.216 40.4902 179.602C40.4902 170.211 48.0947 162.589 57.5029 162.589C61.3135 162.589 64.8354 163.848 67.6592 165.958Z" fill="#1349A6" fill-opacity="1.000000" fill-rule="nonzero"/>
		<circle id="circle" cx="116.570801" cy="285.079834" r="11.908813" fill="#1E60C1" fill-opacity="1.000000"/>
		<path id="path" d="M71.1128 209.136C71.1128 209.136 67.166 220.364 56.499 214.818C56.499 214.818 48.4692 211.994 43.5693 215.686C43.5693 215.686 36.4922 220.415 43.2974 231.831C43.2974 231.831 71.0786 275.876 106.397 288.295C106.397 288.295 107.605 288.721 109.612 288.755C116.247 288.857 122.134 284.144 123.512 277.646C124.158 274.583 124.328 270.602 123.443 265.448C123.443 265.448 119.769 236.305 85.9648 204.61C84.1616 202.926 81.8477 201.786 79.3809 201.633C76.2168 201.429 72.4058 202.637 71.1128 209.136Z" fill="#FFFFFF" fill-opacity="1.000000" fill-rule="nonzero"/>
		<path id="path" d="M73.0859 225.621L73.3071 225.91C78.7852 232.953 82.5107 241.272 83.6846 250.119C83.6846 250.187 83.7017 250.255 83.7188 250.34C83.7188 250.34 87.1211 276.744 119.224 285.063C116.672 287.411 113.252 288.806 109.612 288.755C107.587 288.704 106.379 288.295 106.379 288.295C71.0781 275.876 43.2798 231.831 43.2798 231.831C36.4746 220.415 43.5518 215.686 43.5518 215.686C48.4517 211.994 56.4814 214.818 56.4814 214.818C57.23 215.209 57.9443 215.515 58.6421 215.754C64.3071 217.693 69.4111 220.908 73.0859 225.621Z" fill="#FF754C" fill-opacity="1.000000" fill-rule="nonzero"/>
		<path id="path" d="M118.553 294.597L120.851 288.192L128.857 291.065C130.619 291.697 131.543 293.656 130.911 295.417C130.279 297.178 128.321 298.103 126.559 297.47L118.553 294.597Z" fill="#1E60C1" fill-opacity="1.000000" fill-rule="nonzero"/>
		<path id="path" d="M123.674 285.286L124.304 278.51L132.773 279.298C134.637 279.471 136.02 281.137 135.846 283C135.673 284.864 134.007 286.247 132.144 286.073L123.674 285.286Z" fill="#1E60C1" fill-opacity="1.000000" fill-rule="nonzero"/>
		<path id="path" d="M267.795 103.692C267.778 104.525 267.744 105.359 267.693 106.193C267.37 112.487 266.281 118.765 263.627 124.549C254.883 143.654 236.611 152.246 221.249 156.091C207.4 159.561 195.917 159.187 195.917 159.187L71.9121 159.187C71.9121 159.187 61.0581 159.544 47.7202 156.38C32.1367 152.671 13.168 144.131 4.20215 124.549C1.56494 118.765 0.476562 112.504 0.13623 106.21C0.0849609 105.376 0 101.973 0 101.072C0 85.6753 3.43652 61.96 24.6851 31.5924C24.7192 31.5414 24.7871 31.4392 24.8213 31.3882C45.2534 0.969727 80.0273 0 80.0273 0L187.751 0C187.751 0 222.525 0.969727 242.957 31.3882C265.583 63.6611 268.169 88.3975 267.795 103.692Z" fill="#FFFFFF" fill-opacity="1.000000" fill-rule="nonzero"/>
		<path id="path" d="M267.794 103.692C267.778 104.525 267.744 105.359 267.692 106.193C267.369 112.487 266.28 118.765 263.626 124.549C254.882 143.654 236.61 152.246 221.248 156.091C220.67 156.227 220.108 156.363 219.547 156.499L215.243 157.486L212.181 157.979C227.168 153.93 248.4 142.957 256.821 124.549C259.476 118.765 260.564 112.487 260.888 106.193C260.938 105.359 260.973 104.525 260.99 103.692C261.364 88.3975 258.829 63.6611 236.202 31.3882C215.77 0.969727 180.945 0 180.945 0L187.75 0C187.75 0 222.524 0.969727 242.956 31.3882C265.583 63.6611 268.169 88.3975 267.794 103.692Z" fill="#F2F3F4" fill-opacity="1.000000" fill-rule="nonzero"/>
		<path id="path" d="M36.6113 31.5924C57.043 1.17383 102.144 0 102.144 0L80.0273 0C80.0273 0 45.2534 0.969727 24.8213 31.3882C24.8042 31.4053 24.7021 31.5753 24.6851 31.5924C3.43652 61.96 0 85.6753 0 101.072C0 101.973 0.0849609 105.376 0.13623 106.21C0.476562 112.504 1.56494 118.765 4.20215 124.549C13.168 144.131 32.1367 152.671 47.7202 156.38C61.0581 159.544 71.9121 159.187 71.9121 159.187L91.5615 159.187C87.6147 159.102 71.6572 159.748 62.1299 157.486C46.5464 153.777 25.0767 144.131 16.1108 124.549C13.4741 118.765 12.3853 112.504 12.0449 106.21C11.9937 105.376 11.9087 101.973 11.9087 101.072C11.9087 85.6753 15.3623 61.96 36.6113 31.5924Z" fill="#E3E2E2" fill-opacity="1.000000" fill-rule="nonzero"/>
		<path id="path" d="M155.699 0L155.495 1.53113C154.508 8.72742 154.508 16.0428 155.495 23.2393L155.699 24.7704L114.869 24.7704L115.073 23.2393C116.06 16.0428 116.06 8.72742 115.073 1.53113L114.869 0L155.699 0Z" fill="#FF754C" fill-opacity="1.000000" fill-rule="nonzero"/>
		<path id="path" d="M257.588 94.845C257.554 91.5105 256.091 28.2748 194.794 24.8552C192.889 24.7021 185.233 24.7872 182.8 24.7872L108.2 24.7872C105.768 24.7872 98.1118 24.7021 96.2065 24.8552C34.9102 28.2748 33.4468 91.5105 33.4131 94.845C33.3276 95.8828 33.2598 96.9207 33.2598 97.9585C33.2598 108.812 38.1763 121.674 59.9185 125.536C61.4155 125.808 62.9126 125.961 64.4268 126.08C74.8555 126.965 118.68 127.696 145.509 128.343C172.338 127.696 216.162 126.965 226.591 126.08C228.105 125.944 229.602 125.791 231.099 125.536C252.841 121.657 257.758 108.795 257.758 97.9585C257.758 96.9207 257.69 95.866 257.588 94.845Z" fill="#000000" fill-opacity="1.000000" fill-rule="nonzero"/>
		<path id="path" d="M257.74 97.9756C257.74 98.571 257.723 99.1665 257.689 99.762C257.672 99.2517 257.621 98.7583 257.587 98.2478C257.553 94.9133 256.09 31.6946 194.794 28.2581C192.888 28.105 185.232 28.1899 182.8 28.1899L108.183 28.1899C105.75 28.1899 98.0942 28.105 96.189 28.2581C34.8926 31.6946 33.4292 94.9133 33.3955 98.2478C33.3613 98.7583 33.3101 99.2517 33.2935 99.762C33.2593 99.1665 33.2422 98.571 33.2422 97.9756C33.2422 96.9209 33.3101 95.8831 33.3955 94.8452C33.4292 91.5107 34.8926 28.2921 96.189 24.8555C98.0942 24.7024 105.75 24.7875 108.183 24.7875L182.8 24.7875C185.232 24.7875 192.888 24.7024 194.794 24.8555C256.09 28.2921 257.553 91.5107 257.587 94.8452C257.672 95.8831 257.74 96.9209 257.74 97.9756Z" fill="#545454" fill-opacity="1.000000" fill-rule="nonzero"/>
		<path id="path" d="" fill="#438CED" fill-opacity="1.000000" fill-rule="nonzero"/>
		<path id="path" d="" fill="#438CED" fill-opacity="1.000000" fill-rule="nonzero"/>
		<rect id="rect" x="111.466797" y="52.007568" rx="4.000000" width="13.610081" height="23.817627" fill="#438CED" fill-opacity="1.000000"/>
		<rect id="rect" x="193.126953" y="52.007568" rx="4.000000" width="13.610072" height="23.817627" fill="#438CED" fill-opacity="1.000000"/>
		<path id="path" d="M180.504 101.072C170.484 104.202 160.276 104.202 150.137 101.072" stroke="#438CED" stroke-opacity="1.000000" stroke-width="4.250000" stroke-linecap="round"/>
		<g opacity="0.000000">
			<ellipse id="Oval 4" cx="163.000000" cy="107.000000" rx="15.000000" ry="9.000000" fill="#438CED" fill-opacity="1.000000"/>
		</g>
		<path id="glasss" d="M199.848 36.7473C184.4 36.7473 171.828 49.3196 171.828 64.7671C171.828 65.0051 171.862 65.2263 171.862 65.4646L146.343 65.4646C146.343 65.2263 146.377 65.0051 146.377 64.7671C146.377 49.3196 133.805 36.7473 118.357 36.7473C102.91 36.7473 90.3379 49.3196 90.3379 64.7671C90.3379 80.2146 102.91 92.7869 118.357 92.7869C131.917 92.7869 143.247 83.1067 145.833 70.2791L172.39 70.2791C174.958 83.0896 186.289 92.7869 199.865 92.7869C215.312 92.7869 227.885 80.2146 227.885 64.7671C227.885 49.3196 215.295 36.7473 199.848 36.7473ZM118.357 87.9553C105.564 87.9553 95.1694 77.5435 95.1694 64.7671C95.1694 51.9905 105.581 41.5789 118.357 41.5789C131.134 41.5789 141.563 51.9905 141.563 64.7671C141.563 77.5435 131.151 87.9553 118.357 87.9553ZM199.848 87.9553C187.055 87.9553 176.643 77.5435 176.643 64.7671C176.643 51.9905 187.055 41.5789 199.848 41.5789C212.642 41.5789 223.036 51.9905 223.036 64.7671C223.036 77.5435 212.625 87.9553 199.848 87.9553Z" fill="#FFFFFF" fill-opacity="1.000000" fill-rule="nonzero"/>
	</g>
</svg>
