<svg width="114.957031" height="78.500000" viewBox="0 0 114.957 78.5" fill="none" xmlns="http://www.w3.org/2000/svg" xmlns:xlink="http://www.w3.org/1999/xlink">
	<desc>
			Created with Pixso.
	</desc>
	<defs/>
	<rect id="rect" x="114.000000" rx="6.330000" width="76.000000" height="114.000000" transform="rotate(90 114.000000 0.000000)" fill="#FFFFFF" fill-opacity="1.000000"/>
	<path id="path" d="M114 6L0 6C0 2.68994 2.68945 0 6 0L108 0C111.311 0 114 2.68994 114 6Z" fill="#B8B6B6" fill-opacity="1.000000" fill-rule="nonzero"/>
	<rect id="rect" x="7.250000" y="14.359863" rx="1.970000" width="21.669998" height="21.669998" fill="#EDEDED" fill-opacity="1.000000"/>
	<rect id="rect" x="32.861328" y="14.359863" rx="1.970000" width="21.669998" height="21.669998" fill="#EDEDED" fill-opacity="1.000000"/>
	<rect id="rect" x="58.470703" y="14.360107" rx="1.970000" width="21.670013" height="21.669998" fill="#EDEDED" fill-opacity="1.000000"/>
	<rect id="rect" x="82.601562" y="14.359863" rx="3.370000" width="21.670013" height="47.639999" fill="#EDEDED" fill-opacity="1.000000"/>
	<rect id="rect" x="7.250000" y="39.969971" rx="1.970000" width="21.669998" height="21.670013" fill="#EDEDED" fill-opacity="1.000000"/>
	<rect id="rect" x="32.861328" y="39.969971" rx="1.970000" width="21.669998" height="21.670013" fill="#EDEDED" fill-opacity="1.000000"/>
	<rect id="rect" x="58.470703" y="39.969971" rx="1.970000" width="21.670013" height="21.670013" fill="#EDEDED" fill-opacity="1.000000"/>
	<path id="path" d="M114.938 66.77L114.957 66.79C114.957 67.5264 114.379 68.105 113.641 68.105C112.904 68.105 112.326 67.5264 112.326 66.79L112.346 66.77L114.938 66.77ZM101.232 74.705L101.252 74.6849C101.988 74.6849 102.566 75.2635 102.566 76C102.566 76.7363 101.988 77.3149 101.252 77.3149L101.232 77.2949L101.232 74.705Z" fill="#000000" fill-opacity="0" fill-rule="nonzero"/>
	<path id="path" d="M113.641 66.79C113.641 61.7 109.521 57.58 104.432 57.58C103.422 57.58 102.441 57.75 101.531 58.05C100.562 54.01 96.9316 51 92.582 51C88.2324 51 84.8008 53.85 83.7207 57.74C83.1816 57.64 82.6309 57.58 82.0625 57.58C76.9707 57.58 72.8516 61.7 72.8516 66.79C72.8516 71.88 76.9707 76 82.0625 76L101.252 76" stroke="#1349A6" stroke-opacity="1.000000" stroke-width="2.630000" stroke-linecap="round"/>
	<path id="path" d="M104.43 76C102.939 76.55 101.08 77.5 99.9297 78.5L100.84 76L99.9297 73.5C101.08 74.5 102.93 75.45 104.43 76Z" fill="#1349A6" fill-opacity="1.000000" fill-rule="nonzero"/>
	<path id="path" d="M86.5918 69.38L90.1406 64.64C90.3516 64.3701 90.5117 64.0901 90.6211 63.8C90.7305 63.51 90.791 63.24 90.791 62.98C90.791 62.5601 90.6719 62.24 90.4316 62.02C90.1914 61.8 89.8516 61.6801 89.4121 61.6801C88.9707 61.6801 88.6621 61.8 88.4004 62.05C88.1406 62.3 87.9902 62.64 87.9316 63.0901L86.4512 63.0901C86.5312 62.5 86.7109 62.0001 86.9609 61.5901C87.2207 61.1801 87.5508 60.8601 87.9609 60.64C88.3711 60.42 88.8516 60.3101 89.3809 60.3101C89.9902 60.3101 90.502 60.41 90.9414 60.6201C91.3711 60.8301 91.7012 61.1301 91.9219 61.53C92.1406 61.9301 92.2617 62.41 92.2617 62.9701C92.2617 63.3401 92.1914 63.7101 92.041 64.1001C91.8906 64.4901 91.6816 64.8701 91.4219 65.2301L88.4707 69.2401L92.3203 69.2401L92.3203 70.6001L86.582 70.6001L86.5918 69.38Z" fill="#1349A6" fill-opacity="1.000000" fill-rule="nonzero"/>
	<path id="path" d="M90.1406 64.64C90.3516 64.3701 90.5117 64.0901 90.6211 63.8C90.7305 63.51 90.791 63.24 90.791 62.98C90.791 62.5601 90.6719 62.24 90.4316 62.02C90.1914 61.8 89.8516 61.6801 89.4121 61.6801C88.9707 61.6801 88.6621 61.8 88.4004 62.05C88.1406 62.3 87.9902 62.64 87.9316 63.0901L86.4512 63.0901C86.5312 62.5 86.7109 62.0001 86.9609 61.5901C87.2207 61.1801 87.5508 60.8601 87.9609 60.64C88.3711 60.42 88.8516 60.3101 89.3809 60.3101C89.9902 60.3101 90.502 60.41 90.9414 60.6201C91.3711 60.8301 91.7012 61.1301 91.9219 61.53C92.1406 61.9301 92.2617 62.41 92.2617 62.9701C92.2617 63.3401 92.1914 63.7101 92.041 64.1001C91.8906 64.4901 91.6816 64.8701 91.4219 65.2301L88.4707 69.2401L92.3203 69.2401L92.3203 70.6001L86.582 70.6001L86.5918 69.38L90.1406 64.64Z" stroke="#1349A6" stroke-opacity="1.000000" stroke-width="0.660000"/>
	<path id="path" d="M93.6016 67.8099L97.0215 60.4299L98.4922 60.4299L95.1621 67.72L100.162 67.72L100.162 69.0399L93.6113 69.0399L93.6016 67.8099ZM97.9922 64.6199L99.3809 64.6199L99.3809 70.6199L97.9922 70.6199L97.9922 64.6199Z" fill="#1349A6" fill-opacity="1.000000" fill-rule="nonzero"/>
	<path id="path" d="M97.0215 60.4299L98.4922 60.4299L95.1621 67.72L100.162 67.72L100.162 69.0399L93.6113 69.0399L93.6016 67.8099L97.0215 60.4299ZM99.3809 64.6199L99.3809 70.6199L97.9922 70.6199L97.9922 64.6199L99.3809 64.6199Z" stroke="#1349A6" stroke-opacity="1.000000" stroke-width="0.660000"/>
</svg>
