<svg width="122.601562" height="119.380859" viewBox="0 0 122.602 119.381" fill="none" xmlns="http://www.w3.org/2000/svg" xmlns:xlink="http://www.w3.org/1999/xlink">
	<desc>
			Created with Pixso.
	</desc>
	<defs/>
	<rect id="rect" x="18.351562" y="76.320435" width="88.000000" height="3.000000" fill="#FF754C" fill-opacity="1.000000"/>
	<path id="path" d="M23.6016 57.8204C25.5312 57.8204 27.1016 59.3904 27.1016 61.3204L27.1016 76.3204L20.1016 76.3204L20.1016 61.3204C20.1016 59.3904 21.6719 57.8204 23.6016 57.8204Z" fill="#FF754C" fill-opacity="1.000000" fill-rule="nonzero"/>
	<path id="path" d="M38.8516 51.3204C40.7812 51.3204 42.3516 52.8904 42.3516 54.8204L42.3516 76.3204L35.3516 76.3204L35.3516 54.8204C35.3516 52.8904 36.9219 51.3204 38.8516 51.3204Z" fill="#FF754C" fill-opacity="1.000000" fill-rule="nonzero"/>
	<path id="path" d="M104.352 76.3304L97.3516 76.3304L97.3516 61.3304C97.3516 59.4004 98.9219 57.8304 100.852 57.8304C102.781 57.8304 104.352 59.4004 104.352 61.3304L104.352 76.3304Z" fill="#FF754C" fill-opacity="1.000000" fill-rule="nonzero"/>
	<path id="path" d="M88.8516 76.3304L81.8516 76.3304L81.8516 54.8304C81.8516 52.9004 83.4219 51.3304 85.3516 51.3304C87.2812 51.3304 88.8516 52.9004 88.8516 54.8304L88.8516 76.3304Z" fill="#FF754C" fill-opacity="1.000000" fill-rule="nonzero"/>
	<path id="path" d="M69.8516 46.3204C71.7812 46.3204 73.3516 47.8904 73.3516 49.8204L73.3516 76.3204L66.3516 76.3204L66.3516 49.8204C66.3516 47.8904 67.9219 46.3204 69.8516 46.3204Z" fill="#FF754C" fill-opacity="1.000000" fill-rule="nonzero"/>
	<path id="path" d="M54.3516 68.8204C56.2812 68.8204 57.8516 70.3904 57.8516 72.3204L57.8516 76.3204L50.8516 76.3204L50.8516 72.3204C50.8516 70.3904 52.4219 68.8204 54.3516 68.8204Z" fill="#FF754C" fill-opacity="1.000000" fill-rule="nonzero"/>
	<line id="line" x1="26.851562" y1="50.820435" x2="35.351562" y2="46.820435" stroke="#1349A6" stroke-opacity="1.000000" stroke-width="2.000000"/>
	<line id="line" x1="41.351562" y1="47.820435" x2="52.351562" y2="59.820435" stroke="#1349A6" stroke-opacity="1.000000" stroke-width="2.000000"/>
	<line id="line" x1="56.351562" y1="59.820435" x2="66.851562" y2="42.820435" stroke="#1349A6" stroke-opacity="1.000000" stroke-width="2.000000"/>
	<line id="line" x1="73.351562" y1="40.820435" x2="81.851562" y2="44.320435" stroke="#1349A6" stroke-opacity="1.000000" stroke-width="2.000000"/>
	<line id="line" x1="88.851562" y1="46.820435" x2="97.492188" y2="50.820435" stroke="#1349A6" stroke-opacity="1.000000" stroke-width="2.000000"/>
	<ellipse id="circle" cx="38.851562" cy="45.320435" rx="3.500000" ry="3.500002" fill="#000000" fill-opacity="0"/>
	<ellipse id="circle" cx="38.851562" cy="45.320435" rx="3.500000" ry="3.500002" stroke="#1349A6" stroke-opacity="1.000000" stroke-width="2.000000"/>
	<circle id="circle" cx="100.851562" cy="51.820435" r="3.500000" fill="#000000" fill-opacity="0"/>
	<circle id="circle" cx="100.851562" cy="51.820435" r="3.500000" stroke="#1349A6" stroke-opacity="1.000000" stroke-width="2.000000"/>
	<ellipse id="circle" cx="85.351562" cy="45.320435" rx="3.500000" ry="3.500002" fill="#000000" fill-opacity="0"/>
	<ellipse id="circle" cx="85.351562" cy="45.320435" rx="3.500000" ry="3.500002" stroke="#1349A6" stroke-opacity="1.000000" stroke-width="2.000000"/>
	<circle id="circle" cx="69.851562" cy="40.320435" r="3.500000" fill="#000000" fill-opacity="0"/>
	<circle id="circle" cx="69.851562" cy="40.320435" r="3.500000" stroke="#1349A6" stroke-opacity="1.000000" stroke-width="2.000000"/>
	<circle id="circle" cx="54.351562" cy="62.820435" r="3.500000" fill="#000000" fill-opacity="0"/>
	<circle id="circle" cx="54.351562" cy="62.820435" r="3.500000" stroke="#1349A6" stroke-opacity="1.000000" stroke-width="2.000000"/>
	<circle id="circle" cx="23.601562" cy="52.070435" r="3.500000" fill="#000000" fill-opacity="0"/>
	<circle id="circle" cx="23.601562" cy="52.070435" r="3.500000" stroke="#1349A6" stroke-opacity="1.000000" stroke-width="2.000000"/>
	<path id="path" d="M37.1621 9.70435L37.1523 9.73096C36.0938 10.23 34.8711 9.79016 34.3711 8.73145C33.873 7.67273 34.3125 6.44885 35.3711 5.94983L35.3965 5.95947L37.1621 9.70435ZM119.305 73.2914L119.32 73.3153C119.059 74.4564 117.957 75.1484 116.816 74.8881C115.676 74.6277 114.984 73.5266 115.244 72.3855L115.268 72.3705L119.305 73.2914Z" fill="#000000" fill-opacity="0" fill-rule="nonzero"/>
	<path id="path" d="M36.2617 7.84045C42.8809 4.72046 50.0215 2.81042 57.3418 2.27039C57.502 2.26038 57.6621 2.25037 57.8223 2.24048C86.6621 0.240479 112.922 20.7904 117.912 49.2604C117.922 49.3304 117.932 49.4004 117.951 49.4705C119.301 57.2405 119.031 65.1804 117.281 72.8505" stroke="#FFFFFF" stroke-opacity="1.000000" stroke-width="4.180000" stroke-linecap="round"/>
	<path id="polygon" d="M28.5215 12.1504L41.9219 10.6504L36.8809 7.59045L37.041 1.70044L28.5215 12.1504Z" fill="#FFFFFF" fill-opacity="1.000000" fill-rule="nonzero"/>
	<path id="polygon" d="M113.611 68.2505L117.611 71.3304L122.602 70.5905L115.332 80.0804L113.611 68.2505Z" fill="#FFFFFF" fill-opacity="1.000000" fill-rule="nonzero"/>
	<path id="path" d="M85.4414 109.677L85.4492 109.65C86.5078 109.151 87.7324 109.591 88.2324 110.649C88.7305 111.708 88.291 112.932 87.2324 113.431L87.2051 113.421L85.4414 109.677ZM3.29883 46.0895L3.2832 46.0654C3.54297 44.9244 4.64453 44.2324 5.78516 44.4928C6.92773 44.7531 7.61914 45.8542 7.35938 46.9954L7.33398 47.0104L3.29883 46.0895Z" fill="#000000" fill-opacity="0" fill-rule="nonzero"/>
	<path id="path" d="M86.3418 111.54C79.7207 114.66 72.5801 116.57 65.2617 117.11C65.1016 117.12 64.9414 117.13 64.7812 117.14C35.9414 119.14 9.68164 98.5903 4.69141 70.1204C4.68164 70.0504 4.67188 69.9803 4.65039 69.9104C3.30078 62.1404 3.57031 54.2004 5.32031 46.5304" stroke="#FFFFFF" stroke-opacity="1.000000" stroke-width="4.180000" stroke-linecap="round"/>
	<path id="polygon" d="M94.082 107.23L80.6816 108.73L85.7207 111.791L85.5625 117.68L94.082 107.23Z" fill="#FFFFFF" fill-opacity="1.000000" fill-rule="nonzero"/>
	<path id="polygon" d="M8.99023 51.1304L4.99023 48.0504L0 48.7904L7.26953 39.3004L8.99023 51.1304Z" fill="#FFFFFF" fill-opacity="1.000000" fill-rule="nonzero"/>
</svg>
