<svg width="716.000000" height="520.000000" viewBox="0 0 716 520" fill="none" xmlns="http://www.w3.org/2000/svg" xmlns:xlink="http://www.w3.org/1999/xlink">
	<desc>
			Created with Pixso.
	</desc>
	<defs>
		<clipPath id="clip551_8547">
			<rect id="svg" width="716.000000" height="520.000000" fill="white" fill-opacity="0"/>
		</clipPath>
	</defs>
	<g clip-path="url(#clip551_8547)">
		<path id="path" d="M145.492 519.999C184.484 519.999 216.094 514.248 216.094 507.154C216.094 500.06 184.484 494.31 145.492 494.31C106.5 494.31 74.8896 500.06 74.8896 507.154C74.8896 514.248 106.5 519.999 145.492 519.999Z" fill="#B8B6B6" fill-opacity="1.000000" fill-rule="nonzero"/>
		<rect id="rect" x="313.500000" y="1.500000" rx="12.500000" width="401.000000" height="210.000000" fill="#FFFFFF" fill-opacity="1.000000"/>
		<rect id="rect" x="313.500000" y="1.500000" rx="12.500000" width="401.000000" height="210.000000" stroke="#FF754C" stroke-opacity="1.000000" stroke-width="3.000000"/>
		<path id="path" d="M331.5 230L431 162.5" stroke="#1349A6" stroke-opacity="1.000000" stroke-width="3.000000" stroke-linecap="round"/>
		<path id="path" d="M220 282.392L230.258 291.336L257.091 260.561L246.833 251.617L220 282.392Z" fill="#0A1B35" fill-opacity="1.000000" fill-rule="nonzero"/>
		<path id="path" d="M199.438 291.996C200.579 299.652 207.01 305.676 214.716 306.338C219.089 306.713 223.12 305.453 226.318 303.09C225.979 294.736 222.968 291.418 220.312 290.143C217.063 288.561 214.104 286.4 211.994 283.457L206.074 275.75C201.293 279.322 198.469 285.379 199.438 291.996Z" fill="#E3E2E2" fill-opacity="1.000000" fill-rule="nonzero"/>
		<path id="path" d="M206.091 275.75L212.011 283.457C214.121 286.398 216.877 289.512 220.126 291.094C222.78 292.371 225.995 294.736 226.336 303.088C230.538 299.992 233.26 295.008 233.26 289.393C233.26 280.002 225.655 272.381 216.247 272.381C212.437 272.381 208.915 273.641 206.091 275.75Z" fill="#144793" fill-opacity="1.000000" fill-rule="nonzero"/>
		<path id="path" d="M336.342 236.778C335.893 230.216 330.21 225.261 323.648 225.71C317.087 226.159 312.131 231.842 312.58 238.404C313.029 244.965 318.712 249.921 325.274 249.472C331.836 249.023 336.791 243.339 336.342 236.778Z" fill="#1349A6" fill-opacity="1.000000" fill-rule="nonzero"/>
		<path id="path" d="M244.018 272.883L243.561 272.678C244.041 272.816 244.018 272.883 244.018 272.883L244.053 272.776C244.06 272.751 244.068 272.716 244.079 272.671C244.103 272.581 244.134 272.451 244.168 272.286C244.237 271.957 244.322 271.487 244.387 270.919C244.513 269.787 244.555 268.246 244.206 266.642C243.857 265.034 243.113 263.351 241.658 261.96C240.208 260.574 238.09 259.514 235.047 259.085C234.99 259.068 234.854 259.025 234.744 258.988C234.524 258.915 234.206 258.803 233.817 258.65C233.039 258.345 231.983 257.878 230.872 257.234C228.635 255.936 226.261 253.968 225.392 251.225C225.375 251.174 225.32 251.003 225.293 250.9C225.239 250.692 225.175 250.384 225.131 249.996C225.043 249.219 225.045 248.126 225.406 246.874C226.121 244.391 228.28 241.17 234.245 238.542L234.375 238.489C234.467 238.453 234.604 238.398 234.782 238.327C235.143 238.186 235.675 237.98 236.366 237.721C237.748 237.202 239.766 236.472 242.299 235.629C247.365 233.941 254.494 231.799 262.744 229.98C279.259 226.339 300.193 224.009 318.049 229.155C318.075 229.164 318.195 229.204 318.234 229.218C318.363 229.266 318.557 229.342 318.802 229.452C319.29 229.673 319.985 230.032 320.789 230.579C326.065 234.212 328.043 241.214 325.502 247.095C324.295 249.891 322.143 253.179 318.475 256.84C318.438 256.879 318.312 257.01 318.235 257.088C318.082 257.244 317.851 257.475 317.537 257.773C316.912 258.368 315.965 259.229 314.683 260.283C312.118 262.39 308.218 265.27 302.885 268.345C292.221 274.494 275.825 281.425 252.932 284.513C250.579 284.838 248.148 284.43 246.179 283.194C244.896 282.396 243.729 281.252 243.188 279.625C242.647 278.003 242.699 275.819 244.018 272.883Z" fill="#FFFFFF" fill-opacity="1.000000" fill-rule="nonzero"/>
		<path id="path" d="M244.018 272.883L243.561 272.678C244.041 272.816 244.018 272.883 244.018 272.883C242.699 275.819 242.647 278.003 243.188 279.625C243.729 281.252 244.896 282.396 246.179 283.194C248.148 284.43 250.579 284.838 252.932 284.513C275.825 281.425 292.221 274.494 302.885 268.345C308.218 265.27 312.118 262.39 314.683 260.283C315.965 259.229 316.912 258.368 317.537 257.773C317.851 257.475 318.082 257.244 318.235 257.088C318.312 257.01 318.438 256.879 318.475 256.84C322.143 253.179 324.295 249.891 325.502 247.095C328.043 241.214 326.065 234.212 320.789 230.579C319.985 230.032 319.29 229.673 318.802 229.452C318.557 229.342 318.363 229.266 318.234 229.218C318.195 229.204 318.075 229.164 318.049 229.155C300.193 224.009 279.259 226.339 262.744 229.98C254.494 231.799 247.365 233.941 242.299 235.629C239.766 236.472 237.748 237.202 236.366 237.721C235.675 237.98 235.143 238.186 234.782 238.327C234.604 238.398 234.467 238.453 234.375 238.489L234.245 238.542C228.28 241.17 226.121 244.391 225.406 246.874C225.045 248.126 225.043 249.219 225.131 249.996C225.175 250.384 225.239 250.692 225.293 250.9C225.32 251.003 225.375 251.174 225.392 251.225C226.261 253.968 228.635 255.936 230.872 257.234C231.983 257.878 233.039 258.345 233.817 258.65C234.206 258.803 234.524 258.915 234.744 258.988C234.854 259.025 234.99 259.068 235.047 259.085C238.09 259.514 240.208 260.574 241.658 261.96C243.113 263.351 243.857 265.034 244.206 266.642C244.555 268.246 244.513 269.787 244.387 270.919C244.322 271.487 244.237 271.957 244.168 272.286C244.134 272.451 244.103 272.581 244.079 272.671C244.068 272.716 244.06 272.751 244.053 272.776L244.018 272.883Z" stroke="#B2B2B2" stroke-opacity="1.000000" stroke-width="1.000000"/>
		<path id="path" d="M254.745 260.404L255.095 260.295C263.634 257.732 271.484 253.119 277.587 246.596C277.587 246.596 295.816 226.899 326.792 238.728C326.063 235.333 324.095 232.211 321.105 230.147C319.425 229.017 318.207 228.658 318.207 228.658C282.232 218.296 234.065 238.063 234.065 238.063C221.898 243.415 224.933 251.359 224.933 251.359C226.78 257.2 234.957 259.557 234.957 259.557C235.8 259.67 236.562 259.84 237.259 260.048C242.984 261.754 249.013 262.126 254.745 260.404Z" fill="#FF754C" fill-opacity="1.000000" fill-rule="nonzero"/>
		<path id="path" d="M97.7207 423.947L98.3672 438.307C98.6055 443.768 100.104 448.904 102.553 453.346C105.921 459.469 111.093 464.268 117.336 466.75C118.937 467.396 120.604 467.873 122.321 468.197C125.23 468.742 127.867 469.1 129.942 469.336C131.916 469.559 133.891 469.678 135.88 469.711C136.307 469.729 136.748 469.729 137.189 469.729L143.18 469.729C143.825 469.729 144.473 469.729 145.102 469.711C146.887 469.66 148.674 469.541 150.426 469.336C152.484 469.1 155.139 468.742 158.047 468.197C159.323 467.959 160.565 467.635 161.773 467.211C167.711 465.186 172.78 461.104 176.387 455.727C179.67 450.793 181.695 444.771 182.001 438.307L182.647 423.947C168.663 427.299 154.424 428.982 140.186 428.982C125.944 428.982 111.723 427.299 97.7207 423.947Z" fill="#FFFFFF" fill-opacity="1.000000" fill-rule="nonzero"/>
		<path id="path" d="M97.7207 423.947L98.3672 438.307C98.6055 443.768 100.104 448.904 102.553 453.346C105.921 459.469 111.093 464.268 117.336 466.75C118.937 467.396 120.604 467.873 122.321 468.197C125.23 468.742 127.867 469.1 129.942 469.336C131.916 469.559 133.891 469.678 135.88 469.711C136.307 469.729 136.748 469.729 137.189 469.729L138.433 469.729C136.985 469.422 135.591 468.996 134.229 468.453C127.986 465.969 122.814 461.17 119.445 455.047C116.996 450.605 115.517 445.469 115.261 440.008L114.684 427.18C109 426.381 103.335 425.309 97.7207 423.947Z" fill="#E3E2E2" fill-opacity="1.000000" fill-rule="nonzero"/>
		<path id="path" d="M182.493 426.822L181.983 438.307C181.693 444.771 179.67 450.793 176.387 455.727C172.779 461.104 167.71 465.186 161.772 467.211C160.564 467.635 159.307 467.959 158.029 468.197C155.138 468.742 152.483 469.098 150.426 469.336C148.655 469.541 146.869 469.66 145.084 469.711C144.453 469.729 143.808 469.729 143.16 469.729L136.85 469.729C137.325 469.729 137.803 469.729 138.277 469.711C140.064 469.66 141.852 469.541 143.621 469.336C145.679 469.098 148.333 468.742 151.226 468.197C152.501 467.959 153.76 467.635 154.968 467.211C160.904 465.186 165.976 461.104 169.582 455.727C172.864 450.793 174.89 444.771 175.179 438.307L175.569 429.578C177.918 428.762 180.215 427.844 182.493 426.822Z" fill="#F2F3F4" fill-opacity="1.000000" fill-rule="nonzero"/>
		<path id="path" d="M141.204 435.702L131.864 434.903C119.19 433.815 106.72 430.48 95.1855 424.577C91.9531 422.927 88.6689 421.005 85.5049 418.827C76.0967 412.327 69.6152 401.73 67.3018 389.718C65.2266 378.882 63.0312 362.378 62.8613 340.45L62.8613 275.683L141.204 275.683L219.547 275.683L219.547 340.45C219.377 362.378 217.199 378.882 215.107 389.718C212.793 401.73 206.312 412.327 196.903 418.827C193.739 421.021 190.456 422.927 187.224 424.577C175.688 430.48 163.219 433.815 150.544 434.903L141.204 435.702Z" fill="#FFFFFF" fill-opacity="1.000000" fill-rule="nonzero"/>
		<path id="path" d="M219.548 276.498L219.548 340.432C219.378 362.361 217.183 378.863 215.107 389.699C212.794 401.711 206.312 412.309 196.904 418.809C193.739 421.004 190.456 422.908 187.224 424.576C185.658 425.375 184.094 426.123 182.494 426.822L182.63 423.945C182.018 424.1 181.405 424.236 180.793 424.371C183.906 422.756 187.054 420.918 190.099 418.809C199.507 412.309 205.988 401.711 208.303 389.699C210.378 378.863 212.572 362.361 212.742 340.432L212.742 277.842C214.886 277.484 217.183 277.043 219.548 276.498Z" fill="#F2F3F4" fill-opacity="1.000000" fill-rule="nonzero"/>
		<path id="path" d="M62.8447 272.688L62.8447 283.117L62.8789 319.744C64.002 317.176 66.2812 315.338 68.9697 315.32L69.1904 315.32C71.9297 315.355 74.1406 317.721 74.5664 320.662C74.9062 323.113 75.2979 325.598 75.7744 328.115C78.1904 341.367 82.2051 355.148 88.8906 366.971C88.5166 365.031 88.1426 363.041 87.7344 361.033C86.3906 354.383 85.3691 347.645 84.6553 340.873C83.957 334.086 83.6172 327.264 83.6172 320.441C83.6172 304.264 94.9131 290.977 109.188 290.312L197.67 286.281C197.67 286.281 207.469 286.639 219.514 283.406L219.514 272.977C207.469 276.209 197.67 275.852 197.67 275.852L85.7266 275.852C85.7266 275.852 75.3486 276.227 62.8447 272.688Z" fill="#E3E2E2" fill-opacity="1.000000" fill-rule="nonzero"/>
		<path id="path" d="M92.6846 388.717C91.5791 382.83 90.4395 375.311 88.9082 366.975C98.9629 384.922 115.091 398.379 140.694 398.652L141.783 398.652C184.247 398.209 200.596 361.531 206.669 328.203C207.163 325.549 207.588 322.93 207.945 320.359C208.354 317.469 210.667 315.324 213.338 315.324C213.951 315.324 214.562 315.393 215.142 315.545C218.271 316.361 220.348 319.697 220.348 323.27L220.348 340.844C220.178 362.771 217.982 379.275 215.856 390.111C213.542 402.123 206.992 412.721 197.482 419.221C194.284 421.414 190.967 423.32 187.717 424.988C181.882 427.947 175.825 430.244 169.616 431.963C163.406 433.664 157.077 434.77 150.664 435.314C147.517 435.568 144.369 435.705 141.239 435.705C138.075 435.705 134.943 435.568 131.812 435.314C119.02 434.225 106.414 430.891 94.7598 424.988C91.5107 423.32 88.1934 421.414 84.9951 419.221C75.4844 412.721 68.9346 402.123 66.6211 390.111C64.4951 379.275 62.2998 362.771 62.1299 340.844L62.1299 323.354C62.1299 322.061 62.4189 320.836 62.8955 319.748C64.001 317.178 66.2812 315.342 68.9863 315.324L69.207 315.324C71.9463 315.357 74.1582 317.723 74.583 320.666C74.9229 323.115 75.3145 325.6 75.791 328.117C78.207 341.371 82.2227 355.15 88.9082 366.975C90.4395 375.311 91.5791 382.83 92.6846 388.717C94.9814 400.982 101.463 411.82 110.888 418.455C114.053 420.701 117.336 422.639 120.568 424.342C131.082 429.836 142.378 433.154 153.913 434.531C142.379 433.154 131.1 429.836 120.568 424.342C117.336 422.639 114.053 420.701 110.888 418.455C101.463 411.82 94.9814 400.982 92.6846 388.717Z" fill="#1349A6" fill-opacity="1.000000" fill-rule="evenodd"/>
		<path id="path" d="M62.1299 323.352L62.1299 340.842C62.2998 362.77 64.4951 379.273 66.6211 390.109C68.9346 402.121 75.4844 412.719 84.9951 419.219C88.1934 421.412 91.5107 423.318 94.7598 424.986C106.414 430.889 119.02 434.223 131.812 435.312C134.943 435.566 138.074 435.703 141.238 435.703L150.578 434.887C151.701 434.785 152.807 434.684 153.913 434.529C142.378 433.152 131.082 429.834 120.568 424.34C117.336 422.637 114.053 420.699 110.888 418.453C101.463 411.818 94.9814 400.98 92.6846 388.715C91.5791 382.828 90.4385 375.309 88.9072 366.973C82.2217 355.148 78.207 341.369 75.791 328.115C75.3145 325.598 74.9229 323.113 74.583 320.664C74.1582 317.721 71.9463 315.355 69.207 315.322L68.9863 315.322C66.2812 315.34 64.001 317.176 62.8955 319.746C62.4189 320.834 62.1299 322.059 62.1299 323.352Z" fill="#144793" fill-opacity="1.000000" fill-rule="nonzero"/>
		<path id="path" d="M88.9082 366.973C90.4395 375.309 91.5791 382.828 92.6846 388.715C94.9814 400.98 101.464 411.818 110.889 418.453C114.053 420.699 117.336 422.637 120.568 424.34C131.1 429.834 142.379 433.152 153.913 434.529C152.808 434.682 151.702 434.785 150.579 434.887L141.239 435.703C144.369 435.703 147.517 435.566 150.664 435.312C157.078 434.768 163.406 433.662 169.616 431.961C175.825 430.242 181.882 427.945 187.718 424.986C190.967 423.318 194.284 421.412 197.482 419.219C206.992 412.719 213.542 402.121 215.856 390.109C217.982 379.273 220.178 362.77 220.348 340.842L220.348 323.268C220.348 319.695 218.271 316.359 215.142 315.543C214.563 315.391 213.951 315.322 213.338 315.322C210.667 315.322 208.354 317.467 207.945 320.357C207.588 322.928 207.163 325.547 206.669 328.201C200.596 361.529 184.247 398.207 141.783 398.65L140.694 398.65C115.091 398.377 98.9629 384.92 88.9082 366.973Z" fill="#1349A6" fill-opacity="1.000000" fill-rule="nonzero"/>
		<path id="path" d="M16.1357 322.829L25.7598 332.453L54.6309 303.582L45.0068 293.958L16.1357 322.829Z" fill="#0A1B35" fill-opacity="1.000000" fill-rule="nonzero"/>
		<path id="path" d="M74.3281 291.996C73.1885 299.652 66.7578 305.676 59.0508 306.338C54.6787 306.713 50.6465 305.453 47.4482 303.09C47.7881 294.736 50.7998 291.418 53.4541 290.143C56.7031 288.561 59.6631 286.4 61.7725 283.457L67.6934 275.75C72.4736 279.322 75.2979 285.379 74.3281 291.996Z" fill="#B8B6B6" fill-opacity="1.000000" fill-rule="nonzero"/>
		<path id="path" d="M67.6592 275.75L61.7393 283.457C59.6289 286.398 56.873 289.512 53.624 291.094C50.9697 292.371 47.7549 294.736 47.4141 303.088C43.2119 299.992 40.4902 295.008 40.4902 289.393C40.4902 280.002 48.0947 272.381 57.5029 272.381C61.3135 272.381 64.835 273.641 67.6592 275.75Z" fill="#1349A6" fill-opacity="1.000000" fill-rule="nonzero"/>
		<path id="path" d="M27.0674 416.751C33.6445 416.751 38.9756 411.419 38.9756 404.842C38.9756 398.265 33.6445 392.933 27.0674 392.933C20.4902 392.933 15.1582 398.265 15.1582 404.842C15.1582 411.419 20.4902 416.751 27.0674 416.751Z" fill="#1349A6" fill-opacity="1.000000" fill-rule="nonzero"/>
		<path id="path" d="M40.1328 317.637L40.3896 318.066C42.8818 316.038 45.0322 315.381 46.7354 315.484C48.4424 315.587 49.8467 316.418 50.9492 317.455C52.6406 319.067 53.667 321.303 53.9609 323.652C56.8691 346.576 54.3965 364.205 51.2031 376.092C49.6064 382.036 47.8291 386.545 46.4541 389.565C45.7666 391.074 45.1797 392.211 44.7656 392.969C44.5586 393.347 44.3955 393.631 44.2842 393.819C44.2285 393.913 44.1855 393.983 44.1572 394.029C41.5801 398.509 38.8965 401.519 36.5049 403.413C31.4844 407.383 24.2129 407.283 19.3447 403.118C18.6035 402.485 18.0752 401.907 17.7344 401.491C17.5645 401.284 17.4414 401.117 17.3613 401.003C17.3223 400.947 17.293 400.904 17.2754 400.876C7.70312 384.942 4.53809 364.075 3.80176 347.178C3.43359 338.737 3.66699 331.296 3.99121 325.965C4.1543 323.3 4.33984 321.164 4.48438 319.694C4.55664 318.96 4.61816 318.392 4.66211 318.008C4.68457 317.816 4.70215 317.671 4.71387 317.573L4.72754 317.463C5.73047 311.014 8.29199 308.067 10.5068 306.734C11.625 306.062 12.6807 305.778 13.4531 305.662C13.8398 305.604 14.1543 305.588 14.3691 305.587C14.4766 305.586 14.5586 305.588 14.6113 305.591C17.4951 305.726 20.1084 307.524 21.9385 309.354C22.8467 310.262 23.5684 311.163 24.0635 311.837C24.3115 312.174 24.501 312.453 24.6279 312.647C24.6914 312.744 24.7402 312.819 24.7715 312.87C25.9717 315.696 27.5723 317.515 29.2861 318.559C31.0049 319.605 32.8232 319.891 34.4668 319.814C36.1064 319.737 37.584 319.3 38.6455 318.887C39.1787 318.68 39.6104 318.477 39.9102 318.325C40.0605 318.249 40.1787 318.185 40.2598 318.14C40.2998 318.118 40.3682 318.079 40.3896 318.066C40.3896 318.066 40.3896 318.066 40.1328 317.637Z" fill="#FFFFFF" fill-opacity="1.000000" fill-rule="nonzero"/>
		<path id="path" d="M40.3896 318.066C40.3896 318.066 40.3896 318.066 40.1328 317.637L40.3896 318.066M46.7354 315.484C48.4424 315.587 49.8467 316.418 50.9492 317.455C52.6406 319.067 53.667 321.303 53.9609 323.652C56.8691 346.576 54.3965 364.205 51.2031 376.092C49.6064 382.036 47.8291 386.545 46.4541 389.565C45.7666 391.074 45.1797 392.211 44.7656 392.969C44.5586 393.347 44.3955 393.631 44.2842 393.819C44.2285 393.913 44.1855 393.983 44.1572 394.029C41.5801 398.509 38.8965 401.519 36.5049 403.413C31.4844 407.383 24.2129 407.283 19.3447 403.118C18.6035 402.485 18.0752 401.907 17.7344 401.491C17.5645 401.284 17.4414 401.117 17.3613 401.003C17.3223 400.947 17.293 400.904 17.2754 400.876C7.70312 384.942 4.53809 364.075 3.80176 347.178C3.43359 338.737 3.66699 331.296 3.99121 325.965C4.1543 323.3 4.33984 321.164 4.48438 319.694C4.55664 318.96 4.61816 318.392 4.66211 318.008C4.68457 317.816 4.70215 317.671 4.71387 317.573L4.72754 317.463C5.73047 311.014 8.29199 308.067 10.5068 306.734C11.625 306.062 12.6807 305.778 13.4531 305.662C13.8398 305.604 14.1543 305.588 14.3691 305.587C14.4766 305.586 14.5586 305.588 14.6113 305.591C17.4951 305.726 20.1084 307.524 21.9385 309.354C22.8467 310.262 23.5684 311.163 24.0635 311.837C24.3115 312.174 24.501 312.453 24.6279 312.647C24.6914 312.744 24.7402 312.819 24.7715 312.87C25.9717 315.696 27.5723 317.515 29.2861 318.559C31.0049 319.605 32.8232 319.891 34.4668 319.814C36.1064 319.737 37.584 319.3 38.6455 318.887C39.1787 318.68 39.6104 318.477 39.9102 318.325C40.0605 318.249 40.1787 318.185 40.2598 318.14C40.2998 318.118 40.3682 318.079 40.3896 318.066C42.8818 316.038 45.0322 315.381 46.7354 315.484Z" stroke="#B2B2B2" stroke-opacity="1.000000" stroke-width="1.000000"/>
		<path id="path" d="M31.1504 331.586L31.1504 331.961C30.8613 340.875 28.4287 349.654 23.6992 357.225C23.665 357.293 23.6143 357.344 23.5801 357.412C23.5801 357.412 9.35742 379.92 28.7852 406.799C25.3154 406.969 21.7939 405.881 19.0371 403.516C17.5059 402.189 16.8428 401.1 16.8428 401.1C-2.43262 369.014 4.25391 317.363 4.25391 317.363C6.29492 304.23 14.75 305.098 14.75 305.098C20.875 305.387 25.2637 312.686 25.2637 312.686C25.5869 313.469 25.9443 314.166 26.3359 314.777C29.4658 319.881 31.3379 325.615 31.1504 331.586Z" fill="#FF754C" fill-opacity="1.000000" fill-rule="nonzero"/>
		<path id="path" d="M23.0098 411.072L29.7666 411.881L28.7549 420.328C28.5322 422.186 26.8301 423.523 24.9717 423.301C23.1143 423.078 21.7754 421.377 21.998 419.518L23.0098 411.072Z" fill="#1349A6" fill-opacity="1.000000" fill-rule="nonzero"/>
		<path id="path" d="M32.8115 410.697L38.1611 406.492L43.418 413.18C44.5752 414.65 44.3174 416.801 42.8457 417.957C41.375 419.113 39.2246 418.855 38.0684 417.385L32.8115 410.697Z" fill="#1349A6" fill-opacity="1.000000" fill-rule="nonzero"/>
		<path id="path" d="M8.66992 413.875C7.51367 412.404 7.77051 410.254 9.24219 409.098L15.9297 403.842L20.1348 409.191L13.4473 414.447C11.9766 415.605 9.82617 415.348 8.66992 413.875Z" fill="#1349A6" fill-opacity="1.000000" fill-rule="nonzero"/>
		<path id="path" d="M267.795 223.691C267.778 224.525 267.744 225.359 267.693 226.193C267.37 232.486 266.281 238.766 263.627 244.549C254.883 263.654 236.611 272.246 221.249 276.09C207.4 279.561 195.917 279.188 195.917 279.188L71.9121 279.188C71.9121 279.188 61.0586 279.545 47.7207 276.379C32.1367 272.672 13.168 264.131 4.20215 244.549C1.56543 238.766 0.476562 232.504 0.135742 226.209C0.0849609 225.375 0 221.973 0 221.072C0 205.676 3.43652 181.959 24.6855 151.592C24.7197 151.541 24.7871 151.44 24.8213 151.389C45.2539 120.969 80.0273 120 80.0273 120L187.751 120C187.751 120 222.524 120.969 242.957 151.389C265.584 183.661 268.17 208.397 267.795 223.691Z" fill="#FFFFFF" fill-opacity="1.000000" fill-rule="nonzero"/>
		<path id="path" d="M267.796 223.691C267.778 224.525 267.744 225.359 267.693 226.193C267.37 232.486 266.281 238.766 263.628 244.549C254.883 263.654 236.611 272.246 221.249 276.09C220.671 276.227 220.109 276.363 219.548 276.498L215.244 277.486L212.183 277.979C227.17 273.93 248.401 262.957 256.822 244.549C259.478 238.766 260.565 232.486 260.89 226.193C260.939 225.359 260.975 224.525 260.99 223.691C261.365 208.397 258.83 183.661 236.203 151.389C215.771 120.969 180.946 120 180.946 120L187.751 120C187.751 120 222.525 120.969 242.957 151.389C265.584 183.661 268.17 208.397 267.796 223.691Z" fill="#F2F3F4" fill-opacity="1.000000" fill-rule="nonzero"/>
		<path id="path" d="M36.6113 151.592C57.043 121.174 102.144 120 102.144 120L80.0273 120C80.0273 120 45.2539 120.969 24.8213 151.389C24.8047 151.405 24.7021 151.577 24.6855 151.592C3.43652 181.959 0 205.676 0 221.072C0 221.973 0.0849609 225.375 0.135742 226.209C0.476562 232.504 1.56543 238.766 4.20215 244.549C13.168 264.131 32.1367 272.672 47.7207 276.379C61.0586 279.545 71.9121 279.188 71.9121 279.188L91.5615 279.188C87.6152 279.102 71.6572 279.748 62.1299 277.486C46.5469 273.777 25.0762 264.131 16.1113 244.549C13.4736 238.766 12.3848 232.504 12.0449 226.209C11.9941 225.375 11.9092 221.973 11.9092 221.072C11.9092 205.676 15.3623 181.959 36.6113 151.592Z" fill="#E3E2E2" fill-opacity="1.000000" fill-rule="nonzero"/>
		<path id="path" d="M155.699 120L155.495 121.532C154.509 128.727 154.509 136.043 155.495 143.239L155.699 144.77L114.869 144.77L115.073 143.239C116.061 136.043 116.061 128.727 115.073 121.532L114.869 120L155.699 120Z" fill="#FF754C" fill-opacity="1.000000" fill-rule="nonzero"/>
		<path id="path" d="M257.588 214.846C257.554 211.51 256.091 148.276 194.794 144.856C192.889 144.704 185.233 144.788 182.801 144.788L108.2 144.788C105.768 144.788 98.1113 144.704 96.2061 144.856C34.9102 148.276 33.4473 211.51 33.4131 214.846C33.3281 215.883 33.2598 216.921 33.2598 217.96C33.2598 228.813 38.1768 241.675 59.9189 245.536C61.416 245.81 62.9131 245.962 64.4268 246.081C74.8555 246.966 118.68 247.698 145.509 248.345C172.338 247.698 216.162 246.966 226.591 246.081C228.104 245.944 229.603 245.792 231.1 245.536C252.841 241.657 257.758 228.796 257.758 217.96C257.758 216.921 257.689 215.866 257.588 214.846Z" fill="#000000" fill-opacity="1.000000" fill-rule="nonzero"/>
		<path id="path" d="M257.74 217.975C257.74 218.571 257.724 219.167 257.689 219.762C257.672 219.253 257.621 218.758 257.587 218.249C257.553 214.915 256.09 151.696 194.794 148.258C192.889 148.106 185.232 148.19 182.8 148.19L108.183 148.19C105.75 148.19 98.0938 148.106 96.1885 148.258C34.8926 151.696 33.4297 214.915 33.3955 218.249C33.3613 218.758 33.3105 219.253 33.293 219.762C33.2588 219.167 33.2422 218.571 33.2422 217.975C33.2422 216.921 33.3105 215.883 33.3955 214.846C33.4297 211.51 34.8926 148.292 96.1885 144.856C98.0938 144.704 105.75 144.788 108.183 144.788L182.8 144.788C185.232 144.788 192.889 144.704 194.794 144.856C256.09 148.292 257.553 211.51 257.587 214.846C257.672 215.883 257.74 216.921 257.74 217.975Z" fill="#545454" fill-opacity="1.000000" fill-rule="nonzero"/>
		<path id="path" d="M121.077 172.008L115.467 172.008C113.258 172.008 111.467 173.799 111.467 176.008L111.467 191.826C111.467 194.035 113.258 195.826 115.467 195.826L121.077 195.826C123.286 195.826 125.077 194.035 125.077 191.826L125.077 176.008C125.077 173.799 123.286 172.008 121.077 172.008Z" fill="#438CED" fill-opacity="1.000000" fill-rule="nonzero"/>
		<path id="path" d="M202.737 172.008L197.127 172.008C194.918 172.008 193.127 173.799 193.127 176.008L193.127 191.826C193.127 194.035 194.918 195.826 197.127 195.826L202.737 195.826C204.946 195.826 206.737 194.035 206.737 191.826L206.737 176.008C206.737 173.799 204.946 172.008 202.737 172.008Z" fill="#438CED" fill-opacity="1.000000" fill-rule="nonzero"/>
		<path id="path" d="M176.046 220.426C166.025 223.556 155.818 223.556 145.679 220.426" stroke="#438CED" stroke-opacity="1.000000" stroke-width="4.249990" stroke-linecap="round"/>
		<path id="path" d="M199.847 156.749C184.399 156.749 171.827 169.321 171.827 184.768C171.827 185.006 171.861 185.227 171.861 185.465L146.343 185.465C146.343 185.227 146.376 185.006 146.376 184.768C146.376 169.321 133.804 156.749 118.356 156.749C102.909 156.749 90.3369 169.321 90.3369 184.768C90.3369 200.215 102.909 212.788 118.356 212.788C131.916 212.788 143.246 203.108 145.832 190.28L172.389 190.28C174.958 203.09 186.288 212.788 199.864 212.788C215.312 212.788 227.884 200.215 227.884 184.768C227.884 169.321 215.294 156.749 199.847 156.749ZM118.356 207.956C105.563 207.956 95.1689 197.545 95.1689 184.768C95.1689 171.993 105.58 161.581 118.356 161.581C131.133 161.581 141.562 171.993 141.562 184.768C141.562 197.545 131.15 207.956 118.356 207.956ZM199.847 207.956C187.054 207.956 176.642 197.545 176.642 184.768C176.642 171.993 187.054 161.581 199.847 161.581C212.641 161.581 223.035 171.993 223.035 184.768C223.035 197.545 212.623 207.956 199.847 207.956Z" fill="#FFFFFF" fill-opacity="1.000000" fill-rule="nonzero"/>
		<path id="path" d="M186.355 324.322C186.525 323.42 186.61 322.502 186.61 321.549C186.61 315.799 183.276 310.814 178.429 308.432C178.444 308.244 178.463 308.041 178.463 307.854C178.463 304.35 175.62 301.508 172.116 301.508C168.611 301.508 165.771 304.35 165.771 307.854C165.771 308.006 165.771 308.16 165.787 308.312C160.804 310.645 157.35 315.713 157.35 321.566C157.35 322.467 157.435 323.352 157.588 324.203C155.562 325.258 154.186 327.385 154.186 329.816C154.186 333.322 157.025 336.162 160.53 336.162C162.231 336.162 163.798 335.482 164.938 334.377C167.029 335.533 169.429 336.197 171.979 336.197C174.531 336.197 176.812 335.566 178.854 334.479C179.977 335.533 181.49 336.162 183.157 336.162C186.661 336.162 189.504 333.322 189.504 329.816C189.504 327.486 188.244 325.41 186.355 324.322ZM172.134 303.006C174.787 303.006 176.947 305.148 176.966 307.785C176.966 308.33 176.88 308.891 176.71 309.367C176.062 311.289 174.261 312.668 172.134 312.668C170.007 312.668 168.136 311.238 167.522 309.283C167.388 308.822 167.303 308.348 167.303 307.836C167.388 305.234 169.514 303.006 172.134 303.006ZM160.564 334.631C157.895 334.631 155.732 332.471 155.732 329.799C155.732 328.082 156.636 326.566 157.995 325.717C158.438 325.428 158.932 325.223 159.459 325.104C159.815 325.02 160.19 324.969 160.582 324.969C163.253 324.969 165.413 327.129 165.413 329.799C165.413 330.736 165.142 331.604 164.683 332.334C164.409 332.795 164.053 333.186 163.645 333.525C162.811 334.223 161.722 334.631 160.564 334.631ZM172.015 334.598C169.837 334.598 167.777 334.053 165.976 333.117C166.569 332.148 166.91 331.008 166.91 329.799C166.91 326.295 164.069 323.453 160.564 323.453C160.071 323.453 159.577 323.506 159.118 323.625C159 322.943 158.948 322.246 158.948 321.549C158.948 316.461 161.875 312.039 166.128 309.895C166.979 312.396 169.344 314.182 172.134 314.182C174.924 314.182 177.202 312.447 178.088 309.998C182.223 312.191 185.047 316.547 185.047 321.531C185.047 322.264 184.979 322.979 184.876 323.676C184.332 323.521 183.771 323.438 183.175 323.438C179.671 323.438 176.828 326.277 176.828 329.783C176.828 331.041 177.202 332.215 177.833 333.203C176.08 334.088 174.106 334.598 172.015 334.598ZM183.191 334.631C182.086 334.631 181.064 334.258 180.248 333.627C179.822 333.305 179.466 332.912 179.159 332.471C178.648 331.705 178.359 330.787 178.359 329.799C178.359 327.129 180.521 324.969 183.191 324.969C183.668 324.969 184.128 325.037 184.553 325.172C185.079 325.326 185.557 325.564 185.981 325.869C187.224 326.738 188.022 328.184 188.022 329.816C188.022 332.488 185.862 334.631 183.191 334.631Z" fill="#1349A6" fill-opacity="1.000000" fill-rule="nonzero"/>
		<path id="path" d="M178.429 308.432C178.444 308.244 178.463 308.041 178.463 307.854C178.463 304.35 175.62 301.508 172.116 301.508C168.611 301.508 165.771 304.35 165.771 307.854C165.771 308.006 165.771 308.16 165.787 308.312C160.804 310.645 157.35 315.713 157.35 321.566C157.35 322.467 157.435 323.352 157.588 324.203C155.562 325.258 154.186 327.385 154.186 329.816C154.186 333.322 157.025 336.162 160.53 336.162C162.231 336.162 163.798 335.482 164.938 334.377C167.029 335.533 169.429 336.197 171.979 336.197C174.531 336.197 176.812 335.566 178.854 334.479C179.977 335.533 181.49 336.162 183.157 336.162C186.661 336.162 189.504 333.322 189.504 329.816C189.504 327.486 188.244 325.41 186.355 324.322C186.525 323.42 186.61 322.502 186.61 321.549C186.61 315.799 183.276 310.814 178.429 308.432ZM176.71 309.367C176.062 311.289 174.261 312.668 172.134 312.668C170.007 312.668 168.136 311.238 167.522 309.283C167.388 308.822 167.303 308.348 167.303 307.836C167.388 305.234 169.514 303.006 172.134 303.006C174.787 303.006 176.947 305.148 176.966 307.785C176.966 308.33 176.88 308.891 176.71 309.367ZM157.995 325.717C158.438 325.428 158.932 325.223 159.459 325.104C159.815 325.02 160.19 324.969 160.582 324.969C163.253 324.969 165.413 327.129 165.413 329.799C165.413 330.736 165.142 331.604 164.683 332.334C164.409 332.795 164.053 333.186 163.645 333.525C162.811 334.223 161.722 334.631 160.564 334.631C157.895 334.631 155.732 332.471 155.732 329.799C155.732 328.082 156.636 326.566 157.995 325.717ZM166.91 329.799C166.91 326.295 164.069 323.453 160.564 323.453C160.071 323.453 159.577 323.506 159.118 323.625C159 322.943 158.948 322.246 158.948 321.549C158.948 316.461 161.875 312.039 166.128 309.895C166.979 312.396 169.344 314.182 172.134 314.182C174.924 314.182 177.202 312.447 178.088 309.998C182.223 312.191 185.047 316.547 185.047 321.531C185.047 322.264 184.979 322.979 184.876 323.676C184.332 323.521 183.771 323.438 183.175 323.438C179.671 323.438 176.828 326.277 176.828 329.783C176.828 331.041 177.202 332.215 177.833 333.203C176.08 334.088 174.106 334.598 172.015 334.598C169.837 334.598 167.777 334.053 165.976 333.117C166.569 332.148 166.91 331.008 166.91 329.799ZM179.159 332.471C178.648 331.705 178.359 330.787 178.359 329.799C178.359 327.129 180.521 324.969 183.191 324.969C183.668 324.969 184.128 325.037 184.553 325.172C185.079 325.326 185.557 325.564 185.981 325.869C187.224 326.738 188.022 328.184 188.022 329.816C188.022 332.488 185.862 334.631 183.191 334.631C182.086 334.631 181.064 334.258 180.248 333.627C179.822 333.305 179.466 332.912 179.159 332.471Z" stroke="#1349A6" stroke-opacity="1.000000" stroke-width="0.989999"/>
		<path id="path" d="M373 73.2383L388.43 73.2383L393.294 93L404.53 50L453 50" stroke="#1349A6" stroke-opacity="1.000000" stroke-width="3.000000" stroke-linejoin="round" stroke-linecap="round"/>
		<path id="path" d="M412 64L438 81.5M438 64L412 81.5" stroke="#1349A6" stroke-opacity="1.000000" stroke-width="3.000000" stroke-linejoin="round"/>
		<path id="path" d="M475.288 61L475.288 72.5L475.288 84M475.288 72.5L488 72.5M475.288 72.5L463 72.5" stroke="#1349A6" stroke-opacity="1.000000" stroke-width="3.000000" stroke-linejoin="round"/>
		<path id="path" d="M516.011 84.0001L516.011 81.4432L525.613 70.9319C526.741 69.7009 527.669 68.6307 528.397 67.7217C529.127 66.8031 529.667 65.9414 530.017 65.1365C530.377 64.322 530.557 63.4697 530.557 62.5796C530.557 61.5569 530.311 60.6715 529.817 59.9233C529.335 59.1753 528.672 58.5975 527.83 58.1904C526.986 57.7832 526.04 57.5796 524.988 57.5796C523.871 57.5796 522.896 57.8116 522.062 58.2756C521.238 58.7302 520.599 59.3694 520.145 60.1932C519.7 61.0171 519.477 61.983 519.477 63.0909L516.125 63.0909C516.125 61.3865 516.518 59.8903 517.304 58.6024C518.09 57.3145 519.16 56.3107 520.514 55.5909C521.878 54.8713 523.406 54.5115 525.102 54.5115C526.807 54.5115 528.316 54.8713 529.634 55.5909C530.95 56.3107 531.981 57.2812 532.729 58.5029C533.478 59.7245 533.852 61.0834 533.852 62.5796C533.852 63.6497 533.658 64.696 533.27 65.7189C532.891 66.7321 532.228 67.8636 531.281 69.1136C530.344 70.3542 529.042 71.8694 527.375 73.6592L520.841 80.6478L520.841 80.8751L534.363 80.8751L534.363 84.0001L516.011 84.0001ZM552.9 66.7842L552.9 63.7159L570.4 63.7159L570.4 66.7842L552.9 66.7842ZM552.9 75.1932L552.9 72.1251L570.4 72.1251L570.4 75.1932L552.9 75.1932ZM599.325 54.9092L599.325 84.0001L595.802 84.0001L595.802 58.6024L595.631 58.6024L588.528 63.3182L588.528 59.7386L595.802 54.9092L599.325 54.9092ZM617.18 84.3978C615.04 84.3978 613.217 83.8154 611.711 82.6506C610.205 81.4763 609.055 79.7766 608.259 77.5511C607.464 75.3164 607.065 72.6174 607.065 69.4546C607.065 66.3107 607.464 63.626 608.259 61.4006C609.063 59.1658 610.219 57.4613 611.725 56.287C613.24 55.1033 615.058 54.5115 617.18 54.5115C619.301 54.5115 621.113 55.1033 622.62 56.287C624.135 57.4613 625.29 59.1658 626.086 61.4006C626.891 63.626 627.293 66.3107 627.293 69.4546C627.293 72.6174 626.896 75.3164 626.1 77.5511C625.305 79.7766 624.153 81.4763 622.647 82.6506C621.143 83.8154 619.319 84.3978 617.18 84.3978ZM617.18 81.2728C619.301 81.2728 620.949 80.2501 622.123 78.2046C623.297 76.1592 623.884 73.2424 623.884 69.4546C623.884 66.9357 623.613 64.7908 623.075 63.02C622.544 61.2491 621.776 59.8997 620.772 58.9717C619.778 58.0437 618.581 57.5796 617.18 57.5796C615.077 57.5796 613.434 58.6166 612.251 60.6904C611.066 62.7548 610.475 65.6761 610.475 69.4546C610.475 71.9736 610.739 74.1136 611.271 75.8751C611.801 77.6365 612.562 78.9763 613.558 79.895C614.561 80.8135 615.769 81.2728 617.18 81.2728ZM642.18 84.3978C640.04 84.3978 638.217 83.8154 636.711 82.6506C635.205 81.4763 634.055 79.7766 633.259 77.5511C632.464 75.3164 632.065 72.6174 632.065 69.4546C632.065 66.3107 632.464 63.626 633.259 61.4006C634.063 59.1658 635.219 57.4613 636.725 56.287C638.24 55.1033 640.058 54.5115 642.18 54.5115C644.301 54.5115 646.114 55.1033 647.62 56.287C649.135 57.4613 650.29 59.1658 651.086 61.4006C651.891 63.626 652.293 66.3107 652.293 69.4546C652.293 72.6174 651.896 75.3164 651.1 77.5511C650.305 79.7766 649.154 81.4763 647.648 82.6506C646.143 83.8154 644.32 84.3978 642.18 84.3978ZM642.18 81.2728C644.301 81.2728 645.949 80.2501 647.123 78.2046C648.297 76.1592 648.884 73.2424 648.884 69.4546C648.884 66.9357 648.614 64.7908 648.075 63.02C647.544 61.2491 646.777 59.8997 645.773 58.9717C644.779 58.0437 643.581 57.5796 642.18 57.5796C640.077 57.5796 638.434 58.6166 637.251 60.6904C636.067 62.7548 635.475 65.6761 635.475 69.4546C635.475 71.9736 635.74 74.1136 636.271 75.8751C636.801 77.6365 637.562 78.9763 638.558 79.895C639.561 80.8135 640.769 81.2728 642.18 81.2728Z" fill="#1349A6" fill-opacity="1.000000" fill-rule="nonzero"/>
	</g>
</svg>
