<svg width="114.000000" height="76.000000" viewBox="0 0 114 76" fill="none" xmlns="http://www.w3.org/2000/svg" xmlns:xlink="http://www.w3.org/1999/xlink">
	<desc>
			Created with Pixso.
	</desc>
	<defs/>
	<rect id="rect" x="114.000000" rx="6.330000" width="76.000000" height="114.000000" transform="rotate(90 114.000000 0.000000)" fill="#FFFFFF" fill-opacity="1.000000"/>
	<path id="path" d="M114 6L0 6C0 2.68994 2.68945 0 6 0L108 0C111.311 0 114 2.68994 114 6Z" fill="#B8B6B6" fill-opacity="1.000000" fill-rule="nonzero"/>
	<rect id="rect" x="12.500000" y="10.000000" rx="1.000000" width="11.000000" height="11.000000" fill="#FF754C" fill-opacity="1.000000"/>
	<rect id="rect" x="25.500000" y="10.000000" rx="1.000000" width="11.000000" height="11.000000" fill="#A6E2BE" fill-opacity="1.000000"/>
	<rect id="rect" x="38.500000" y="10.000000" rx="1.000000" width="11.000000" height="11.000000" fill="#EDEDED" fill-opacity="1.000000"/>
	<rect id="rect" x="51.500000" y="10.000000" rx="1.000000" width="11.000000" height="11.000000" fill="#EDEDED" fill-opacity="1.000000"/>
	<rect id="rect" x="64.500000" y="10.000000" rx="1.000000" width="11.000000" height="11.000000" fill="#FF754C" fill-opacity="1.000000"/>
	<rect id="rect" x="77.500000" y="10.000000" rx="1.000000" width="11.000000" height="11.000000" fill="#EDEDED" fill-opacity="1.000000"/>
	<rect id="rect" x="90.500000" y="10.000000" rx="1.000000" width="11.000000" height="11.000000" fill="#EDEDED" fill-opacity="1.000000"/>
	<rect id="rect" x="12.500000" y="23.000000" rx="1.000000" width="11.000000" height="11.000000" fill="#EDEDED" fill-opacity="1.000000"/>
	<rect id="rect" x="25.500000" y="23.000000" rx="1.000000" width="11.000000" height="11.000000" fill="#EDEDED" fill-opacity="1.000000"/>
	<rect id="rect" x="38.500000" y="23.000000" rx="1.000000" width="11.000000" height="11.000000" fill="#EDEDED" fill-opacity="1.000000"/>
	<rect id="rect" x="51.500000" y="23.000000" rx="1.000000" width="11.000000" height="11.000000" fill="#A6E2BE" fill-opacity="1.000000"/>
	<rect id="rect" x="64.500000" y="23.000000" rx="1.000000" width="11.000000" height="11.000000" fill="#EDEDED" fill-opacity="1.000000"/>
	<rect id="rect" x="77.500000" y="23.000000" rx="1.000000" width="11.000000" height="11.000000" fill="#EDEDED" fill-opacity="1.000000"/>
	<rect id="rect" x="90.500000" y="23.000000" rx="1.000000" width="11.000000" height="11.000000" fill="#EDEDED" fill-opacity="1.000000"/>
	<rect id="rect" x="12.500000" y="36.000000" rx="1.000000" width="11.000000" height="11.000000" fill="#EDEDED" fill-opacity="1.000000"/>
	<rect id="rect" x="25.500000" y="36.000000" rx="1.000000" width="11.000000" height="11.000000" fill="#EDEDED" fill-opacity="1.000000"/>
	<rect id="rect" x="38.500000" y="36.000000" rx="1.000000" width="11.000000" height="11.000000" fill="#FF754C" fill-opacity="1.000000"/>
	<rect id="rect" x="51.500000" y="36.000000" rx="1.000000" width="11.000000" height="11.000000" fill="#FF754C" fill-opacity="1.000000"/>
	<rect id="rect" x="64.500000" y="36.000000" rx="1.000000" width="11.000000" height="11.000000" fill="#FF754C" fill-opacity="1.000000"/>
	<rect id="rect" x="77.500000" y="36.000000" rx="1.000000" width="11.000000" height="11.000000" fill="#EDEDED" fill-opacity="1.000000"/>
	<rect id="rect" x="90.500000" y="36.000000" rx="1.000000" width="11.000000" height="11.000000" fill="#EDEDED" fill-opacity="1.000000"/>
	<rect id="rect" x="12.500000" y="49.000000" rx="1.000000" width="11.000000" height="11.000000" fill="#FF754C" fill-opacity="1.000000"/>
	<rect id="rect" x="25.500000" y="49.000000" rx="1.000000" width="11.000000" height="11.000000" fill="#EDEDED" fill-opacity="1.000000"/>
	<rect id="rect" x="38.500000" y="49.000000" rx="1.000000" width="11.000000" height="11.000000" fill="#EDEDED" fill-opacity="1.000000"/>
	<rect id="rect" x="51.500000" y="49.000000" rx="1.000000" width="11.000000" height="11.000000" fill="#EDEDED" fill-opacity="1.000000"/>
	<rect id="rect" x="64.500000" y="49.000000" rx="1.000000" width="11.000000" height="11.000000" fill="#EDEDED" fill-opacity="1.000000"/>
	<rect id="rect" x="77.500000" y="49.000000" rx="1.000000" width="11.000000" height="11.000000" fill="#EDEDED" fill-opacity="1.000000"/>
	<rect id="rect" x="90.500000" y="49.000000" rx="1.000000" width="11.000000" height="11.000000" fill="#EDEDED" fill-opacity="1.000000"/>
	<rect id="rect" x="12.500000" y="62.000000" rx="1.000000" width="11.000000" height="11.000000" fill="#EDEDED" fill-opacity="1.000000"/>
	<rect id="rect" x="25.500000" y="62.000000" rx="1.000000" width="11.000000" height="11.000000" fill="#EDEDED" fill-opacity="1.000000"/>
	<rect id="rect" x="38.500000" y="62.000000" rx="1.000000" width="11.000000" height="11.000000" fill="#A6E2BE" fill-opacity="1.000000"/>
	<rect id="rect" x="51.500000" y="62.000000" rx="1.000000" width="11.000000" height="11.000000" fill="#EDEDED" fill-opacity="1.000000"/>
	<rect id="rect" x="64.500000" y="62.000000" rx="1.000000" width="11.000000" height="11.000000" fill="#EDEDED" fill-opacity="1.000000"/>
	<rect id="rect" x="77.500000" y="62.000000" rx="1.000000" width="11.000000" height="11.000000" fill="#EDEDED" fill-opacity="1.000000"/>
	<rect id="rect" x="90.500000" y="62.000000" rx="1.000000" width="11.000000" height="11.000000" fill="#EDEDED" fill-opacity="1.000000"/>
	<path id="path" d="M28.8203 20.0399L28.8203 13.5499C28.8203 13.5499 28.7402 13.58 28.6016 13.61C28.4609 13.6399 28.3105 13.6699 28.1309 13.71C27.9609 13.74 27.8008 13.7699 27.6719 13.7999C27.5312 13.83 27.4609 13.84 27.4609 13.84L27.4609 13.0499C27.5703 13.0199 27.7012 12.99 27.8418 12.9399C27.9902 12.8899 28.1309 12.84 28.291 12.7799C28.4414 12.72 28.5918 12.63 28.7305 12.5399C28.8711 12.4399 28.9902 12.33 29.0801 12.2L29.8711 12.2L29.8711 20.0399L28.8203 20.0399Z" fill="#1349A6" fill-opacity="1.000000" fill-rule="nonzero"/>
	<path id="path" d="M33.3301 20.1299C32.8809 20.1299 32.5215 20.0299 32.2305 19.8298C31.9414 19.6299 31.7305 19.3599 31.5918 19.0099C31.4512 18.6599 31.3809 18.2599 31.3809 17.8198L31.3809 14.4399C31.3809 13.9799 31.4512 13.5798 31.5801 13.2299C31.7207 12.8799 31.9316 12.6099 32.2207 12.4199C32.5117 12.2299 32.8809 12.1299 33.3301 12.1299C33.7812 12.1299 34.1504 12.2299 34.4316 12.4199C34.7109 12.6099 34.9199 12.8799 35.0605 13.2299C35.2012 13.5798 35.2617 13.9799 35.2617 14.4399L35.2617 17.8198C35.2617 18.2699 35.1914 18.6699 35.0508 19.0199C34.9102 19.3699 34.7012 19.6399 34.4102 19.8398C34.1309 20.0399 33.7715 20.1299 33.3301 20.1299ZM33.3301 19.2799C33.5703 19.2799 33.7617 19.2098 33.8906 19.0698C34.0215 18.9299 34.1016 18.7499 34.1504 18.5199C34.2012 18.2899 34.2207 18.0698 34.2207 17.8298L34.2207 14.4299C34.2207 14.1799 34.2012 13.9399 34.1504 13.7198C34.1016 13.4999 34.0215 13.3198 33.8906 13.1799C33.7617 13.0399 33.5801 12.9799 33.3203 12.9799C33.0605 12.9799 32.8809 13.0499 32.75 13.1799C32.6211 13.3198 32.5312 13.4899 32.4902 13.7198C32.4512 13.9399 32.4199 14.1799 32.4199 14.4299L32.4199 17.8298C32.4199 18.0699 32.4414 18.2999 32.4902 18.5199C32.541 18.7399 32.6309 18.9299 32.7617 19.0698C32.8906 19.2098 33.0918 19.2799 33.3301 19.2799Z" fill="#1349A6" fill-opacity="1.000000" fill-rule="nonzero"/>
	<path id="path" d="M67.8203 59.0399L67.8203 52.5499C67.8203 52.5499 67.7402 52.58 67.6016 52.61C67.4609 52.6399 67.3105 52.6699 67.1309 52.71C66.9609 52.74 66.8008 52.7699 66.6719 52.7999C66.5312 52.83 66.4609 52.84 66.4609 52.84L66.4609 52.0499C66.5703 52.0199 66.7012 51.99 66.8418 51.9399C66.9902 51.8899 67.1309 51.84 67.291 51.7799C67.4414 51.72 67.5918 51.6299 67.7305 51.5399C67.8711 51.4399 67.9902 51.33 68.0801 51.2L68.8711 51.2L68.8711 59.0399L67.8203 59.0399Z" fill="#1349A6" fill-opacity="1.000000" fill-rule="nonzero"/>
	<path id="path" d="M72.3301 59.1299C71.8809 59.1299 71.5215 59.0299 71.2305 58.8298C70.9414 58.6299 70.7305 58.3599 70.5918 58.0099C70.4512 57.6599 70.3809 57.2599 70.3809 56.8198L70.3809 53.4399C70.3809 52.9799 70.4512 52.5798 70.5801 52.2299C70.7207 51.8799 70.9316 51.6099 71.2207 51.4199C71.5117 51.2299 71.8809 51.1299 72.3301 51.1299C72.7812 51.1299 73.1504 51.2299 73.4316 51.4199C73.7109 51.6099 73.9199 51.8799 74.0605 52.2299C74.2012 52.5798 74.2617 52.9799 74.2617 53.4399L74.2617 56.8198C74.2617 57.2699 74.1914 57.6699 74.0508 58.0199C73.9102 58.3699 73.7012 58.6399 73.4102 58.8398C73.1309 59.0399 72.7715 59.1299 72.3301 59.1299ZM72.3301 58.2799C72.5703 58.2799 72.7617 58.2098 72.8906 58.0698C73.0215 57.9299 73.1016 57.7499 73.1504 57.5199C73.2012 57.2899 73.2207 57.0698 73.2207 56.8298L73.2207 53.4299C73.2207 53.1799 73.2012 52.9399 73.1504 52.7198C73.1016 52.4999 73.0215 52.3198 72.8906 52.1799C72.7617 52.0399 72.5801 51.9799 72.3203 51.9799C72.0605 51.9799 71.8809 52.0499 71.75 52.1799C71.6211 52.3198 71.5312 52.4899 71.4902 52.7198C71.4512 52.9399 71.4199 53.1799 71.4199 53.4299L71.4199 56.8298C71.4199 57.0698 71.4414 57.2999 71.4902 57.5199C71.541 57.7399 71.6309 57.9299 71.7617 58.0698C71.8906 58.2098 72.0918 58.2799 72.3301 58.2799Z" fill="#1349A6" fill-opacity="1.000000" fill-rule="nonzero"/>
	<path id="path" d="M58.041 33.1299C57.6309 33.1299 57.291 33.0499 57.002 32.8999C56.7109 32.7499 56.4922 32.5299 56.3516 32.2399C56.2109 31.9498 56.1211 31.5999 56.1211 31.1799L57.1621 31.0898C57.1621 31.4598 57.2207 31.7499 57.3418 31.9598C57.4609 32.1599 57.7012 32.2599 58.0605 32.2599C58.252 32.2599 58.4219 32.1998 58.5508 32.0798C58.6816 31.9598 58.7812 31.7799 58.8418 31.5299C58.9004 31.2799 58.9414 30.9698 58.9414 30.5898L58.9414 29.3999C58.8418 29.5599 58.7012 29.6898 58.5117 29.7899C58.3203 29.8899 58.082 29.9398 57.8008 29.9398C57.3711 29.9398 57.0312 29.8499 56.7812 29.6499C56.5312 29.4498 56.3613 29.1898 56.2617 28.8599C56.1621 28.5199 56.1113 28.1299 56.1113 27.6699C56.1113 27.1898 56.1719 26.7599 56.3008 26.3799C56.4316 25.9999 56.6406 25.6898 56.9219 25.4598C57.2109 25.2299 57.582 25.1199 58.0508 25.1199C58.5215 25.1199 58.8711 25.2299 59.1504 25.4598C59.4414 25.6898 59.6406 25.9999 59.7812 26.3899C59.9121 26.7799 59.9805 27.2098 59.9805 27.6898L59.9805 30.3198C59.9805 30.8198 59.9219 31.2899 59.8105 31.7098C59.6914 32.1399 59.502 32.4799 59.2207 32.7299C58.9414 32.9799 58.541 33.1299 58.041 33.1299ZM58.041 29.1599C58.2715 29.1599 58.4512 29.0999 58.5918 28.9899C58.7305 28.8799 58.8418 28.7499 58.9219 28.6199L58.9219 27.4598C58.9219 27.1898 58.8906 26.9398 58.8418 26.7198C58.791 26.4999 58.7012 26.3198 58.5703 26.1898C58.4414 26.0598 58.2617 25.9899 58.041 25.9899C57.8203 25.9899 57.6309 26.0598 57.502 26.1898C57.3711 26.3198 57.2715 26.4999 57.2207 26.7198C57.1719 26.9398 57.1406 27.1699 57.1406 27.4299C57.1406 27.7399 57.1504 28.0299 57.1816 28.2899C57.2109 28.5499 57.291 28.7699 57.4121 28.9199C57.5312 29.0698 57.752 29.1599 58.041 29.1599Z" fill="#1349A6" fill-opacity="1.000000" fill-rule="nonzero"/>
	<path id="path" d="M45.041 72.1299C44.6309 72.1299 44.291 72.0499 44.002 71.8999C43.7109 71.7499 43.4922 71.5299 43.3516 71.2399C43.2109 70.9498 43.1211 70.5999 43.1211 70.1799L44.1621 70.0898C44.1621 70.4598 44.2207 70.7499 44.3418 70.9598C44.4609 71.1599 44.7012 71.2599 45.0605 71.2599C45.252 71.2599 45.4219 71.1998 45.5508 71.0798C45.6816 70.9598 45.7812 70.7799 45.8418 70.5299C45.9004 70.2799 45.9414 69.9698 45.9414 69.5898L45.9414 68.3999C45.8418 68.5598 45.7012 68.6898 45.5117 68.7899C45.3203 68.8899 45.082 68.9398 44.8008 68.9398C44.3711 68.9398 44.0312 68.8499 43.7812 68.6499C43.5312 68.4498 43.3613 68.1898 43.2617 67.8599C43.1621 67.5199 43.1113 67.1299 43.1113 66.6699C43.1113 66.1898 43.1719 65.7599 43.3008 65.3799C43.4316 64.9999 43.6406 64.6898 43.9219 64.4598C44.2109 64.2299 44.582 64.1199 45.0508 64.1199C45.5215 64.1199 45.8711 64.2299 46.1504 64.4598C46.4414 64.6898 46.6406 64.9999 46.7812 65.3899C46.9121 65.7799 46.9805 66.2098 46.9805 66.6898L46.9805 69.3198C46.9805 69.8198 46.9219 70.2899 46.8105 70.7098C46.6914 71.1399 46.502 71.4799 46.2207 71.7299C45.9414 71.9799 45.541 72.1299 45.041 72.1299ZM45.041 68.1599C45.2715 68.1599 45.4512 68.0999 45.5918 67.9899C45.7305 67.8799 45.8418 67.7499 45.9219 67.6199L45.9219 66.4598C45.9219 66.1898 45.8906 65.9398 45.8418 65.7198C45.791 65.4999 45.7012 65.3198 45.5703 65.1898C45.4414 65.0598 45.2617 64.9899 45.041 64.9899C44.8203 64.9899 44.6309 65.0598 44.502 65.1898C44.3711 65.3198 44.2715 65.4999 44.2207 65.7198C44.1719 65.9398 44.1406 66.1699 44.1406 66.4299C44.1406 66.7399 44.1504 67.0299 44.1816 67.2899C44.2109 67.5499 44.291 67.7699 44.4121 67.9199C44.5312 68.0698 44.752 68.1599 45.041 68.1599Z" fill="#1349A6" fill-opacity="1.000000" fill-rule="nonzero"/>
	<path id="path" d="M16.0312 46.12L16.0312 39.5C16.0312 39.5 15.9512 39.53 15.8105 39.5599C15.6699 39.59 15.5098 39.63 15.3301 39.66C15.1504 39.6899 14.9902 39.72 14.8613 39.75C14.7207 39.78 14.6504 39.79 14.6406 39.79L14.6406 38.99C14.75 38.96 14.8809 38.9299 15.0312 38.88C15.1797 38.83 15.3301 38.78 15.4805 38.71C15.6309 38.64 15.7812 38.5599 15.9199 38.46C16.0605 38.36 16.1797 38.25 16.2812 38.11L17.0801 38.11L17.0801 46.11L16.0312 46.12Z" fill="#1349A6" fill-opacity="1.000000" fill-rule="nonzero"/>
	<path id="path" d="M19.7617 46.12L19.7617 39.5C19.7617 39.5 19.6816 39.53 19.541 39.5599C19.4004 39.59 19.2402 39.63 19.0605 39.66C18.8809 39.6899 18.7207 39.72 18.5918 39.75C18.4512 39.78 18.3809 39.79 18.3711 39.79L18.3711 38.99C18.4805 38.96 18.6113 38.9299 18.7617 38.88C18.9102 38.83 19.0605 38.78 19.2109 38.71C19.3613 38.64 19.5117 38.5599 19.6504 38.46C19.791 38.36 19.9102 38.25 20.0117 38.11L20.8105 38.11L20.8105 46.11L19.7617 46.12Z" fill="#1349A6" fill-opacity="1.000000" fill-rule="nonzero"/>
</svg>
